<svg xmlns="http://www.w3.org/2000/svg" viewBox="0 0 750 500"><g id="freepik--background-simple--inject-4"><path d="M646,141l-2.59-5.79c-19.94-44.56-62.45-75.32-111.14-79a130.26,130.26,0,0,0-20,0c-45.58,3.57-88.51,31.63-110.06,71.95-12.68,23.71-19.07,52.08-39.52,69.54-26.61,22.73-66.16,18.37-100.7,12.75s-74.13-9.87-100.64,13c-16.6,14.3-24.22,36.74-25.9,58.59-4.43,57.85,29.37,114.53,77.58,146.82s108.6,42.52,166.5,38.69c81.1-5.38,161.93-38.73,215.85-99.55S672.7,217.75,646,141Z" style="fill:#e0e0e0"></path><circle cx="298.49" cy="122.22" r="38.36" transform="translate(109 383.23) rotate(-76.29)" style="fill:#e0e0e0"></circle></g><g id="freepik--character-1--inject-4"><path d="M269.47,466.59,252,404.22l1.77-148.75-16.63-4.77-94.93-6.13S112,247.75,99.75,272.16c-4.61,9.16-13.7,40.2-13.7,40.2l28.66,7.81,9.47,83.41-10.66,63.14Z" style="fill:#EFC342"></path><g style="opacity:0.30000000000000004"><path d="M210.42,279.07c-5.59,33.93-13.2,69.28-10.59,103.56.87,11.39,3,23.54,11.12,31.63,5.2,5.22,12.24,8.09,19.1,10.78,4.31,1.69,9,3.39,13.45,2.12,6.3-1.8,9.58-8.85,10.38-15.36s0-13.24,1.78-19.53"></path></g><path d="M192.44,341.16a15.23,15.23,0,0,0,1.06-5.88c1.27-1.06,6-2.16,6-2.16l-.34-1.76a27.18,27.18,0,0,1-6.25-.18,15,15,0,0,0-2-4.25,10.3,10.3,0,0,1,2.58-3.32l-1.19-1.34a15,15,0,0,1-3.49,2.2,15.69,15.69,0,0,0-2.81-2.12c-.31-1.6,1.13-6.28,1.13-6.28l-1.7-.59a26.13,26.13,0,0,1-3.31,5.27,15.18,15.18,0,0,0-4.48-.47,11,11,0,0,1-1.56-3.95l-1.77.36a14.38,14.38,0,0,1,.16,4.05,15.56,15.56,0,0,0-3.67,1.47c-1.6-.61-4.89-4.1-4.89-4.1l-1.37,1.2a24.77,24.77,0,0,1,2.93,5.41,15.52,15.52,0,0,0-2.94,4.11,10.64,10.64,0,0,1-3.86-.59L160,330a15.22,15.22,0,0,1,3.38,1.69,15.27,15.27,0,0,0-.51,4.06,27.71,27.71,0,0,1-5.66,1.93l.35,1.79a23.57,23.57,0,0,1,5.84.15,15.39,15.39,0,0,0,2.12,4.59,10.92,10.92,0,0,1-2.44,3l1.2,1.36a14.8,14.8,0,0,1,3.17-2.07,15.45,15.45,0,0,0,5.47,3.45c.57,1.75.34,6.18.34,6.18l1.81.16a23.61,23.61,0,0,1,1.72-5.47,15.67,15.67,0,0,0,4.09-.16,16.44,16.44,0,0,0,2-.52,11.22,11.22,0,0,1,1.81,3.34l1.71-.6a15.26,15.26,0,0,1-.73-4,15.1,15.1,0,0,0,4.79-4.23,27.59,27.59,0,0,1,5.57,2.26l.9-1.58A25.37,25.37,0,0,1,192.44,341.16Zm-17.57-20.52h0Z" style="fill:#f5f5f5"></path><path d="M166.15,317.15c.22.24-.21,1-1,1.67a5.78,5.78,0,0,1-.76.57c-.47.28-.86.38-1,.22s.21-1,1-1.67S165.93,316.9,166.15,317.15Z" style="fill:#f5f5f5"></path><g style="opacity:0.30000000000000004"><path d="M164.5,319.35a6.09,6.09,0,0,0,1.34-1.24c.23.25.5.52.77.8a6,6,0,0,1-1.86.75Z"></path></g><path d="M160.38,327.25c.31.1.32,1,0,1.93a5.06,5.06,0,0,1-.37.87c-.26.48-.55.77-.75.7s-.33-1,0-1.93S160.07,327.15,160.38,327.25Z" style="fill:#f5f5f5"></path><g style="opacity:0.30000000000000004"><path d="M160.07,330a4.07,4.07,0,0,0,.53-1.74c.32.11.68.21,1.05.31a5.75,5.75,0,0,1-1.21,1.56Z"></path></g><path d="M156.56,336.9c.33-.07.76.68,1,1.67a5.67,5.67,0,0,1,.11.94c0,.55-.11.94-.32,1s-.75-.68-1-1.67S156.24,337,156.56,336.9Z" style="fill:#f5f5f5"></path><g style="opacity:0.30000000000000004"><path d="M157.64,339.43a5.77,5.77,0,0,0-.4-1.78l1.08-.27a5.94,5.94,0,0,1-.29,2Z"></path></g><path d="M162.14,346.88c.24-.22,1,.21,1.68,1a5.13,5.13,0,0,1,.57.75c.28.46.38.86.22,1s-1-.2-1.67-.95S161.9,347.1,162.14,346.88Z" style="fill:#f5f5f5"></path><g style="opacity:0.30000000000000004"><path d="M164.35,348.52a4,4,0,0,0-1.24-1.33c.25-.23.52-.48.79-.76a5.77,5.77,0,0,1,.75,1.83Z"></path></g><path d="M172.38,356.55c0-.33.86-.53,1.88-.46a5.84,5.84,0,0,1,.93.15c.52.15.87.36.85.58s-.86.54-1.87.46S172.36,356.88,172.38,356.55Z" style="fill:#f5f5f5"></path><g style="opacity:0.30000000000000004"><path d="M175.11,356.22a6,6,0,0,0-1.82-.11c0-.34,0-.72,0-1.11a5.9,5.9,0,0,1,1.83.83Z"></path></g><path d="M184.08,354.24c-.12-.31.56-.84,1.52-1.19a5.22,5.22,0,0,1,.91-.25c.54-.08.94,0,1,.18s-.57.84-1.52,1.19S184.19,354.55,184.08,354.24Z" style="fill:#f5f5f5"></path><g style="opacity:0.30000000000000004"><path d="M186.43,352.82a4.06,4.06,0,0,0-1.7.64c-.11-.32-.25-.66-.4-1a5.69,5.69,0,0,1,2,0Z"></path></g><path d="M196.09,347.93c-.29-.16-.13-1,.37-1.89a4.4,4.4,0,0,1,.52-.78c.36-.42.7-.64.89-.54s.12,1-.37,1.9S196.37,348.09,196.09,347.93Z" style="fill:#f5f5f5"></path><g style="opacity:0.30000000000000004"><path d="M196.93,345.32a6,6,0,0,0-.86,1.6l-1-.5a5.89,5.89,0,0,1,1.52-1.31Z"></path></g><path d="M171.38,337.78c.21,1.17-.25,2.23-1,2.37s-1.59-.69-1.8-1.86.26-2.22,1-2.36S171.17,336.62,171.38,337.78Z" style="fill:#e0e0e0"></path><path d="M168.55,325.85c.94-.73,2.09-.82,2.59-.19s.13,1.73-.8,2.46-2.09.82-2.58.19S167.62,326.58,168.55,325.85Z" style="fill:#e0e0e0"></path><path d="M177.32,343.74a1.41,1.41,0,1,1-1.64-1.14A1.42,1.42,0,0,1,177.32,343.74Z" style="fill:#e0e0e0"></path><path d="M185,329.68a1.74,1.74,0,1,1-.53-2.4A1.73,1.73,0,0,1,185,329.68Z" style="fill:#e0e0e0"></path><path d="M184.68,344a1,1,0,0,1-2,.37,1,1,0,1,1,2-.37Z" style="fill:#e0e0e0"></path><path d="M200.13,333.87c-.32.06-.74-.68-.95-1.66a5.45,5.45,0,0,1-.11-.92c0-.54.11-.93.32-1s.74.67,1,1.65S200.45,333.8,200.13,333.87Z" style="fill:#f5f5f5"></path><g style="opacity:0.30000000000000004"><path d="M199.07,331.37a5.78,5.78,0,0,0,.39,1.75l-1.06.27a6,6,0,0,1,.28-2Z"></path></g><path d="M194.38,323.92c-.24.22-1-.21-1.66-.95a4.37,4.37,0,0,1-.56-.74c-.28-.46-.38-.85-.22-1s1,.21,1.65.95S194.62,323.7,194.38,323.92Z" style="fill:#f5f5f5"></path><g style="opacity:0.30000000000000004"><path d="M192.2,322.3a4,4,0,0,0,1.22,1.31q-.37.33-.78.75a5.76,5.76,0,0,1-.74-1.81Z"></path></g><path d="M188,315.86c-.1.31-1,.31-1.91,0a4.82,4.82,0,0,1-.85-.37c-.47-.26-.75-.55-.68-.76s1-.3,1.9,0S188.14,315.55,188,315.86Z" style="fill:#f5f5f5"></path><g style="opacity:0.30000000000000004"><path d="M185.35,315.52a6,6,0,0,0,1.71.55c-.1.31-.2.68-.3,1.05a5.89,5.89,0,0,1-1.56-1.24Z"></path></g><path d="M176.75,315.66c.07.32-.67.75-1.65,1a5.44,5.44,0,0,1-.93.11c-.54,0-.92-.1-1-.31s.67-.75,1.65-1S176.68,315.34,176.75,315.66Z" style="fill:#f5f5f5"></path><g style="opacity:0.30000000000000004"><path d="M174.25,316.73a4.09,4.09,0,0,0,1.76-.4c.06.33.14.69.24,1.06a5.8,5.8,0,0,1-1.93-.28Z"></path></g><path d="M188.37,339.64c-.37,1.12-1.27,1.84-2,1.6s-1.09-1.36-.73-2.48,1.27-1.85,2-1.61S188.73,338.51,188.37,339.64Z" style="fill:#e0e0e0"></path><path d="M180,333.5a2.14,2.14,0,1,1-2.49-1.73A2.15,2.15,0,0,1,180,333.5Z" style="fill:#e0e0e0"></path><path d="M177.34,367.74A31.71,31.71,0,1,1,209.05,336,31.75,31.75,0,0,1,177.34,367.74Zm0-61.41A29.71,29.71,0,1,0,207.05,336,29.74,29.74,0,0,0,177.34,306.33Z" style="fill:#263238"></path><polygon points="197.77 312.61 156.03 357.52 158.08 359.45 199.77 314.42 197.77 312.61" style="fill:#263238"></polygon><g style="opacity:0.30000000000000004"><path d="M122.32,390.31c11.66-8.26,17.85-22.45,20.22-36.54s1.48-28.5,2-42.78c.31-9.22,1.6-19.29,8.31-25.62,2.7-2.54,6.49-5.05,6.15-8.74-.3-3.22-4-5.26-7.21-4.74s-5.75,2.92-7.67,5.51c-8,10.8-7.54,25.37-8,38.78a215.8,215.8,0,0,1-16.81,76"></path></g><path d="M239.92,251.49s29.55.54,38.17,23.78c6.65,17.92,15,64.76,15,64.76l-47.14-7.48Z" style="fill:#EFC342"></path><path d="M200.22,408.5a2.41,2.41,0,0,1-.37.52l-1.14,1.42c-1,1.24-2.49,3-4.4,5.06s-4.26,4.52-7,7.11-5.8,5.32-9.16,8.05-6.69,5.15-9.78,7.28-5.95,3.91-8.4,5.33-4.45,2.54-5.87,3.25l-1.62.82a2.46,2.46,0,0,1-.59.26,2.55,2.55,0,0,1,.54-.35l1.58-.9c1.38-.77,3.36-1.92,5.77-3.39s5.24-3.3,8.32-5.42,6.37-4.58,9.72-7.29,6.42-5.44,9.16-8,5.09-4.95,7-7,3.48-3.75,4.52-4.94l1.21-1.36A4.83,4.83,0,0,1,200.22,408.5Z" style="fill:#263238"></path><path d="M242.51,292.86a7.35,7.35,0,0,1-.33-1.42,36.07,36.07,0,0,1-.5-3.95,47.74,47.74,0,0,1,.87-13.09,41.27,41.27,0,0,1,2-6.95c.37-1.06.86-2,1.26-2.91s.87-1.71,1.34-2.41a19,19,0,0,1,1.28-1.88,15.62,15.62,0,0,1,1.07-1.34,9.29,9.29,0,0,1,1-1c.09.08-1.39,1.56-3.06,4.45-.45.7-.81,1.55-1.27,2.41s-.85,1.84-1.2,2.89a42.71,42.71,0,0,0-2,6.88,52,52,0,0,0-1,13c.09,1.66.2,3,.33,3.94A8.17,8.17,0,0,1,242.51,292.86Z" style="fill:#263238"></path><path d="M235,141.72a17.16,17.16,0,0,1,1.73,15.4c-1.07,2.8-2.9,5.92-1.46,8.56s5.18,2.76,8.07,3.76a11.38,11.38,0,0,1,7.17,12.71c-.4,1.87-1.3,3.73-.91,5.6s2.07,3.32,3.35,4.84a14.16,14.16,0,0,1-8.3,23c-2.21.4-4.61.31-6.52,1.49-2.19,1.35-3.15,4-4.7,6.05a11.9,11.9,0,0,1-21.4-7.08" style="fill:#263238"></path><path d="M198,125.55c5.22-3.32,6.49-11,3.65-16.52s-8.84-8.85-14.95-9.83a28.46,28.46,0,0,0-24.54,8.13c-3.38,3.47-6.11,8-10.68,9.6-4,1.39-8.47.13-12.69.68-5.66.73-10.51,4.75-13.41,9.67s-4.1,10.64-4.77,16.3c-.61,5.2-1,10.91-4.63,14.71s-9.07,4.48-13.45,7.11c-8.23,5-10.89,17.23-5.46,25.15,1.73,2.53,4.21,4.84,4.41,7.9.19,2.79-1.62,5.27-2.46,7.94-2.17,6.86,3.44,15,10.63,15.43,3.63.21,7.52-1.21,10.77.42s4.44,5.51,6.5,8.47a15.55,15.55,0,0,0,19,4.89c2.67-1.31,5.19-3.47,8.15-3.27s5.29,2.73,8.21,3.29c3.81.74,7.43-2.07,9.7-5.22s3.85-6.87,6.75-9.45c3.8-3.38,9.14-4.22,13.94-5.87A39.34,39.34,0,0,0,214.83,160" style="fill:#263238"></path><path d="M209.05,133.85a8.72,8.72,0,0,1,7.78,8.86h0l-5.2,117.67c-.22,13.9-20.53,21.71-35.41,21.36h0c-15-.35-15.51-7.72-15.7-20.94-.31-22.09-.29-30.38-.29-30.26s-19-3.19-22.86-28c-1.93-12.33-1.27-32.53-.19-49,1-14.86,10.85-33.08,25.66-31.48Z" style="fill:#ffbe9d"></path><path d="M145.42,167.76a3.19,3.19,0,0,0,3.06,3.22,3,3,0,0,0,3.28-2.86,3.18,3.18,0,0,0-3-3.22A3.06,3.06,0,0,0,145.42,167.76Z" style="fill:#263238"></path><path d="M141.54,164.94c.39.41,2.8-1.37,6.22-1.35s5.92,1.73,6.29,1.32c.18-.19-.22-.94-1.31-1.74a8.75,8.75,0,0,0-5-1.56,8.41,8.41,0,0,0-5,1.59C141.7,164,141.34,164.75,141.54,164.94Z" style="fill:#263238"></path><path d="M178.23,169a3.17,3.17,0,0,0,3.05,3.21,3,3,0,0,0,3.28-2.86,3.17,3.17,0,0,0-3.05-3.21A3,3,0,0,0,178.23,169Z" style="fill:#263238"></path><path d="M175.44,165.8c.4.42,2.81-1.36,6.23-1.34s5.92,1.73,6.29,1.31c.18-.18-.21-.93-1.31-1.73a8.68,8.68,0,0,0-5-1.56,8.43,8.43,0,0,0-5,1.59C175.61,164.87,175.25,165.62,175.44,165.8Z" style="fill:#263238"></path><path d="M162.68,190.09c0-.19-2.11-.56-5.55-1-.88-.09-1.7-.27-1.85-.86a4.44,4.44,0,0,1,.59-2.59l2.6-6.64c3.6-9.46,6.22-17.24,5.83-17.38s-3.61,7.41-7.22,16.87c-.87,2.33-1.7,4.55-2.49,6.68a5.07,5.07,0,0,0-.46,3.42,2.19,2.19,0,0,0,1.44,1.28,5.71,5.71,0,0,0,1.48.21C160.51,190.27,162.66,190.29,162.68,190.09Z" style="fill:#263238"></path><path d="M160.23,230.54a62.93,62.93,0,0,0,33.19-8.77s-8.41,17.46-33.19,15.09Z" style="fill:#eb996e"></path><path d="M164.1,198.34a6.14,6.14,0,0,1,5.53-2.28,5.6,5.6,0,0,1,3.88,2.09,3.57,3.57,0,0,1,.26,4.08c-.92,1.29-2.85,1.59-4.48,1.12a13,13,0,0,1-4.37-2.62,3.73,3.73,0,0,1-1-1,1.13,1.13,0,0,1,0-1.27" style="fill:#eb996e"></path><path d="M172.73,192.48c-.55,0-.57,3.68-3.75,6.3s-7.13,2.21-7.16,2.73c0,.24.88.73,2.55.77a9.25,9.25,0,0,0,6-2.06,8,8,0,0,0,2.91-5.29C173.4,193.38,173,192.46,172.73,192.48Z" style="fill:#263238"></path><path d="M173.77,160.8c.61.77,3.72-.71,7.68-1.49s7.39-.76,7.63-1.72c.11-.45-.7-1.11-2.23-1.56a13.6,13.6,0,0,0-11.66,2.45C174,159.5,173.5,160.42,173.77,160.8Z" style="fill:#263238"></path><path d="M141.76,156.49c.4,1,3.41,1.34,6.69,2.62s5.84,2.91,6.78,2.41c.42-.25.28-1.15-.66-2.32a11.81,11.81,0,0,0-4.95-3.36,11.6,11.6,0,0,0-5.9-.69C142.27,155.43,141.59,156,141.76,156.49Z" style="fill:#263238"></path><path d="M195.46,120.21a17,17,0,0,1-20,16.74c-3.79-.7-7.93-2.61-11.21-.59-3.45,2.12-3.59,7.31-6.64,10-4.37,3.8-11.31.24-16.86,1.88-4.28,1.27-6.95,5.37-9.8,8.81s-7.1,6.71-11.39,5.44a51,51,0,0,1,1.7-11.42,17,17,0,0,1,6.49-9.31c1.77-1.15,3.83-1.85,5.48-3.18,3.55-2.87,4.37-7.87,6.57-11.87A18.59,18.59,0,0,1,154,117.28c4.87-.5,9.89,1,14.64-.23,3.52-.89,6.58-3.17,10.14-3.84,6.93-1.32,13.37,3.65,18.39,8.6" style="fill:#263238"></path><path d="M208.49,173.89c.74-.2,3.71,4.17-1.05,5.24-8.32,1.89-9.42-14.37-7.56-19a48.28,48.28,0,0,1-8.35-8.78c-2.3-3.4-4.32-12.66-3.83-16.83-3,.18-15.78-4-14.42-4.43,3.11-.89,9.46-2.9,11.13-5.59,3.62-5.86,10-9.85,16.51-9.49A15.66,15.66,0,0,1,215,127.37c7.89.06,15.58,5,19.36,12.47a26.09,26.09,0,0,1-.7,24.29c-1.1,1.88-2.5,3.76-2.53,6,0,2.76,2,4.94,3.44,7.22,3.93,6.22,3.63,14.76.6,21.53S230,208,225.71,209.37c-8.45,2.65,1.35,20-12.71,20" style="fill:#263238"></path><path d="M208.15,180.7c.27-5.27,6-8.79,10.58-6.15,2.5,1.45,4.42,4.36,4.19,10-.61,14.92-15.47,11.23-15.48,10.8C207.44,195,207.85,186.87,208.15,180.7Z" style="fill:#ffbe9d"></path><path d="M212.24,189.84c.06,0,.25.2.68.42a2.61,2.61,0,0,0,1.94.12c1.6-.52,3-3,3.22-5.65a8.59,8.59,0,0,0-.58-3.75,3,3,0,0,0-1.87-2.08,1.33,1.33,0,0,0-1.57.65c-.21.41-.13.71-.21.73s-.31-.26-.16-.87a1.61,1.61,0,0,1,.62-.91,1.91,1.91,0,0,1,1.45-.32,3.62,3.62,0,0,1,2.62,2.42,8.71,8.71,0,0,1,.73,4.2c-.22,3-1.87,5.75-4.05,6.29a2.78,2.78,0,0,1-2.36-.5C212.25,190.2,212.18,189.87,212.24,189.84Z" style="fill:#eb996e"></path><path d="M98,190.31c.05,0-.34-.47-.85-1.41a11.24,11.24,0,0,1-1.33-4.44,11.43,11.43,0,0,1,1.59-7c1.49-2.45,4.34-4.3,7.75-5.54s7.45-2.19,11-4.89,5.68-7.38,6.45-12.2.4-10,.79-15.26a27.28,27.28,0,0,1,1.58-7.73,15.5,15.5,0,0,1,4.44-6.58,14.17,14.17,0,0,1,7.32-3,28.07,28.07,0,0,1,7.88.24,52.36,52.36,0,0,0,7.78,1.07,9.61,9.61,0,0,0,7.19-2.55c1.84-1.8,2.86-4,4.05-6a13.85,13.85,0,0,1,4.35-4.75,16.08,16.08,0,0,1,11.2-2.42,17,17,0,0,1,8.65,4.14,21.72,21.72,0,0,1,4.56,5.78,32.26,32.26,0,0,1,2.3,5.9s0-.14,0-.42a10.48,10.48,0,0,0-.25-1.21,20,20,0,0,0-1.65-4.46,21.47,21.47,0,0,0-4.53-6,17.52,17.52,0,0,0-8.93-4.44,16.82,16.82,0,0,0-11.79,2.43,14.74,14.74,0,0,0-4.66,5c-1.23,2-2.26,4.13-3.93,5.73a8.68,8.68,0,0,1-6.51,2.25,53.08,53.08,0,0,1-7.63-1.09,28.62,28.62,0,0,0-8.18-.26,15.2,15.2,0,0,0-7.85,3.21,16.48,16.48,0,0,0-4.76,7,28.25,28.25,0,0,0-1.62,8c-.38,5.33,0,10.45-.72,15.18s-2.64,9.12-6,11.67-7.4,3.47-10.8,4.88-6.44,3.3-8,5.93a11.76,11.76,0,0,0-1.49,7.37A10.86,10.86,0,0,0,97,189,5.69,5.69,0,0,0,98,190.31Z" style="fill:#455a64"></path><path d="M136.85,152.29c-.1,0,0,1.22-.2,3.37a23.67,23.67,0,0,1-2.64,8.65,22.52,22.52,0,0,1-3.63,5.07,29.3,29.3,0,0,1-5.66,4.44,18.09,18.09,0,0,0-3.13,2.57,8.58,8.58,0,0,0-2.08,3.8c-.74,2.9-.2,5.88,0,8.79s-.08,5.81-1.87,7.83-4.21,3.19-6.5,4.32a24.43,24.43,0,0,0-6.3,3.91,9,9,0,0,0-2.8,5.87,10.75,10.75,0,0,0,3.14,8.62,8.37,8.37,0,0,0,2.11,1.43c.54.22.82.32.83.28a15.89,15.89,0,0,1-2.65-2,10.54,10.54,0,0,1-2.69-8.25,8.33,8.33,0,0,1,2.66-5.32,24,24,0,0,1,6.13-3.67c2.29-1.11,4.91-2.26,6.86-4.53a8.76,8.76,0,0,0,1.94-4,17.13,17.13,0,0,0,.19-4.52c-.18-3-.68-5.87,0-8.47s2.68-4.4,4.77-5.82A29.6,29.6,0,0,0,131,170a23,23,0,0,0,6-14.28,16,16,0,0,0-.05-2.53A2.61,2.61,0,0,0,136.85,152.29Z" style="fill:#455a64"></path><path d="M242.85,214.79a2,2,0,0,0,.54-.17,9.75,9.75,0,0,0,1.49-.75,12.62,12.62,0,0,0,4.35-4.55,12.25,12.25,0,0,0,1.19-9.66,13.22,13.22,0,0,0-8.92-8.85l.23.7a20.31,20.31,0,0,0,4-7.48,10.7,10.7,0,0,0-1.48-9,8,8,0,0,0-3.93-3,12,12,0,0,0-5-.26,18.21,18.21,0,0,1-4.81.2,4.85,4.85,0,0,1-3.62-2.55,9.38,9.38,0,0,1-.46-6.82c.58-2.3,1.56-4.5,2.1-6.86a20,20,0,0,0-1.7-13.42,19.12,19.12,0,0,0-8.6-8.48,19.77,19.77,0,0,0-10.08-2.06l.38.32a10.55,10.55,0,0,0-3.61-6.58,11.66,11.66,0,0,0-5-2.57,10,10,0,0,0-3.52-.15,4.85,4.85,0,0,0-1.18.31,12.22,12.22,0,0,1,4.6.22,11.38,11.38,0,0,1,4.73,2.61,9.94,9.94,0,0,1,3.27,6.23l0,.33h.34a19.16,19.16,0,0,1,9.65,2.11,18.33,18.33,0,0,1,8.12,8.15,19.1,19.1,0,0,1,1.56,12.76c-.51,2.22-1.5,4.41-2.12,6.83a10.37,10.37,0,0,0,.56,7.58,5.91,5.91,0,0,0,4.37,3.09,19.51,19.51,0,0,0,5.1-.2A11,11,0,0,1,240,173a7.09,7.09,0,0,1,3.44,2.64,9.75,9.75,0,0,1,1.38,8.2A19.66,19.66,0,0,1,241,191l-.41.52.64.18a12.52,12.52,0,0,1,8.47,8.21,11.86,11.86,0,0,1-1,9.21,12.89,12.89,0,0,1-4.06,4.56C243.55,214.45,242.82,214.73,242.85,214.79Z" style="fill:#455a64"></path><path d="M193.83,126a9,9,0,0,1,3,2.49c1.47,2,2,5.93,1.09,10.32l-.08.38.37.09a14.44,14.44,0,0,1,9.62,8.47,11.55,11.55,0,0,1,.77,3.64,21.14,21.14,0,0,1-.47,3.94,29.84,29.84,0,0,0-.57,4.25,7,7,0,0,0,1.19,4.4c1.85,2.83,4.84,4.22,7.4,5.57a25.19,25.19,0,0,1,6.93,4.53,18.64,18.64,0,0,1,5.57,12.51,19.36,19.36,0,0,1-2,9.22c-1,2-1.82,3-1.73,3.07a3.62,3.62,0,0,0,.63-.67A17,17,0,0,0,227,196a19,19,0,0,0,2.35-9.43,19.18,19.18,0,0,0-5.64-13.17,25.56,25.56,0,0,0-7.14-4.77c-2.56-1.35-5.38-2.73-7-5.22-1.65-2.26-.91-5.22-.48-7.9a22,22,0,0,0,.46-4.14,12.15,12.15,0,0,0-.87-4,15.16,15.16,0,0,0-10.34-8.87l.28.47c.89-4.6.19-8.63-1.5-10.75a6.27,6.27,0,0,0-2.34-1.9A3.5,3.5,0,0,0,193.83,126Z" style="fill:#455a64"></path><path d="M194.56,174.88a97.5,97.5,0,0,1-10.1,1,97.53,97.53,0,0,1-10.14.45,99.34,99.34,0,0,1,10.1-1A99.41,99.41,0,0,1,194.56,174.88Z" style="fill:#EFC342"></path><path d="M195.47,177.4a99.34,99.34,0,0,1-10.1,1,99.26,99.26,0,0,1-10.13.46,97.49,97.49,0,0,1,10.09-1A97.53,97.53,0,0,1,195.47,177.4Z" style="fill:#EFC342"></path><path d="M153.19,175.88a47.66,47.66,0,0,1-6.93-1,48.83,48.83,0,0,1-6.84-1.57,47.66,47.66,0,0,1,6.93,1.05A48.83,48.83,0,0,1,153.19,175.88Z" style="fill:#EFC342"></path><path d="M154.11,178.82a10.47,10.47,0,0,1-2.3-.19c-1.41-.17-3.35-.4-5.5-.58s-4.11-.28-5.52-.35a11.07,11.07,0,0,1-2.3-.19,9.34,9.34,0,0,1,2.3-.18c1.43,0,3.4,0,5.56.2s4.12.47,5.52.73A10.16,10.16,0,0,1,154.11,178.82Z" style="fill:#EFC342"></path><path d="M257.33,382.49a1.83,1.83,0,0,1,.07-.5c.09-.38.19-.85.31-1.41.31-1.21.67-3,1.11-5.16a67.36,67.36,0,0,0,1-7.75,53.75,53.75,0,0,0-.31-9.54c-.4-3.37-1-6.55-1.64-9.43s-1.2-5.46-1.69-7.66-.85-4-1.09-5.18q-.17-.84-.27-1.41a3,3,0,0,1-.06-.5,1.5,1.5,0,0,1,.16.48l.37,1.39c.31,1.29.73,3,1.25,5.14s1.15,4.75,1.79,7.64a91.25,91.25,0,0,1,1.7,9.47,50.94,50.94,0,0,1,.26,9.63,58.49,58.49,0,0,1-1.07,7.79c-.48,2.19-.91,3.95-1.27,5.14-.16.56-.3,1-.41,1.38A3,3,0,0,1,257.33,382.49Z" style="fill:#eb996e"></path><path d="M254.72,334l-26.67-70.4s-9.52-33.33-9.52-36.68-6.17-4.76-6.17-4.76-17.64,1.59-22.05,2.12-3.88,5.46-3.88,5.46-3.52,2.82-4.23,4.94,1.24,6.7,1.24,6.7l-2.12,2.82s.35,5.82,1.24,8.47,7.58,6.17,9.87,5.82.35-3.71.35-3.71l2.65.74s4,14.25,5.64,18.13,9.35,5.47,9.35,5.47c-1.3,2.78-2.25,111.7,6.27,120.22s22.26,17.52,33.15,14.2,21.28-28.06,25.1-41.61c4.14-14.68,7.81-33.49,7.81-33.49Z" style="fill:#ffbe9d"></path><path d="M203.57,235.42c0,.08-1.25.13-3.22.62s-4.66,1.28-7.59,2.29-5.55,2-7.44,2.77-3,1.26-3.07,1.2a12.89,12.89,0,0,1,2.92-1.54c1.87-.84,4.48-1.91,7.42-2.92a58.14,58.14,0,0,1,7.68-2.16,18.83,18.83,0,0,1,2.41-.31A3.26,3.26,0,0,1,203.57,235.42Z" style="fill:#eb996e"></path><path d="M212.79,230.9a3.05,3.05,0,0,0,0-1.14,3,3,0,0,0-2.09-2.09,14.13,14.13,0,0,0-4.7-.1c-1.8.12-3.78.26-5.84.49a61.81,61.81,0,0,0-10.45,2c-2.61.76-4.16,1.44-4.2,1.35a6,6,0,0,1,1.06-.55c.7-.31,1.73-.72,3-1.15a52.06,52.06,0,0,1,10.5-2.13c2.08-.23,4.07-.36,5.88-.45a13.58,13.58,0,0,1,4.84.23,3.19,3.19,0,0,1,2.17,2.4,1.85,1.85,0,0,1-.07.9C212.87,230.82,212.8,230.91,212.79,230.9Z" style="fill:#eb996e"></path><path d="M195,254.53c0,.06-.4.2-1.09.14a4.5,4.5,0,0,1-2.42-1.08,4.56,4.56,0,0,1-1.42-2.24c-.16-.68-.08-1.1,0-1.1s.14.4.37,1a5.24,5.24,0,0,0,1.41,2,5.3,5.3,0,0,0,2.14,1.11C194.56,254.45,195,254.45,195,254.53Z" style="fill:#eb996e"></path><path d="M190.21,250.74a4.29,4.29,0,0,1-4.85,1.42c0-.15,1.18,0,2.51-.42S190.1,250.63,190.21,250.74Z" style="fill:#eb996e"></path><path d="M228.05,264.76s0-.07-.08-.22l-.19-.64c-.17-.59-.42-1.42-.72-2.49-.62-2.22-1.5-5.41-2.62-9.42s-2.41-8.92-3.82-14.49c-.69-2.8-1.45-5.74-2.07-8.9-.18-.75-.21-1.69-.34-2.37a3.75,3.75,0,0,0-1.37-1.85,12.66,12.66,0,0,0-4.54-2h.08l-13.7,1.33-7.24.7a12.61,12.61,0,0,0-1.8.24,3.77,3.77,0,0,0-1.53.81,4.74,4.74,0,0,0-1.41,3.19,7.25,7.25,0,0,0,0,1v.15l-.1.09a23.67,23.67,0,0,0-2.47,2.32,7,7,0,0,0-1.74,2.73,7.91,7.91,0,0,0,.26,3.19,24.3,24.3,0,0,0,1,3.09l.06.14-.09.12-2.12,2.82,0-.17a58.45,58.45,0,0,0,.78,6.62,13.61,13.61,0,0,0,.37,1.56,4.74,4.74,0,0,0,.28.69,7,7,0,0,0,.45.62,11,11,0,0,0,2.34,2,17,17,0,0,0,5.41,2.49,3,3,0,0,0,1.35,0,.91.91,0,0,0,.76-.8,4.87,4.87,0,0,0-.71-2.53l-.24-.45.48.14,2.64.75.12,0,0,.11c1.25,4.42,2.43,8.44,3.51,12,.55,1.76,1.07,3.4,1.59,4.89a9.39,9.39,0,0,0,.89,2.05,6.79,6.79,0,0,0,1.4,1.47,13.86,13.86,0,0,0,3,1.74,23.26,23.26,0,0,0,2.39.92c.65.22,1.16.36,1.51.46l.52.15s-.19,0-.54-.09-.86-.2-1.53-.4a21.83,21.83,0,0,1-2.42-.87,13.78,13.78,0,0,1-3.05-1.73,6.36,6.36,0,0,1-1.47-1.5,9.76,9.76,0,0,1-.95-2.1c-.54-1.5-1.08-3.14-1.64-4.9-1.11-3.52-2.31-7.53-3.59-12l.14.14-2.64-.73.24-.31a5.2,5.2,0,0,1,.78,2.81,1.38,1.38,0,0,1-1.08,1.17,3.51,3.51,0,0,1-1.55,0,17.2,17.2,0,0,1-5.6-2.53,12.4,12.4,0,0,1-2.44-2.1,5.78,5.78,0,0,1-.5-.69,4.42,4.42,0,0,1-.33-.79c-.16-.53-.28-1.07-.39-1.61a60.07,60.07,0,0,1-.79-6.68v-.09l.06-.08,2.11-2.82,0,.25a24.52,24.52,0,0,1-1-3.17,8,8,0,0,1-.26-3.43,7.51,7.51,0,0,1,1.85-3,24.8,24.8,0,0,1,2.53-2.38l-.09.23a6.31,6.31,0,0,1,0-1.15,5.22,5.22,0,0,1,1.58-3.53,4.5,4.5,0,0,1,1.74-.92,14.22,14.22,0,0,1,1.87-.26l7.25-.69,13.72-1.3h.07a13,13,0,0,1,4.72,2.15,4.17,4.17,0,0,1,1.52,2.09c.17.92.15,1.61.34,2.41.6,3.13,1.35,6.09,2,8.88,1.39,5.57,2.66,10.46,3.72,14.51s1.89,7.23,2.48,9.45c.27,1.08.49,1.92.64,2.52.07.27.12.48.16.65S228.06,264.75,228.05,264.76Z" style="fill:#eb996e"></path><path d="M173.21,252.09c-.88-2.47-3.88-4.41-3.88-4.41s3.17-3.7,1.59-4.94a33.39,33.39,0,0,0-5.29-2.82s.88-2.82-.53-3.7S139.7,233,139.7,233a9.28,9.28,0,0,0-3.88,5.65c-.88,3.88-11.64,36.68-11.64,36.68l-21.55,41.51-14.75-4s-10.08,45-11.32,51.84-6.2,19.55-1.55,27S83.84,409,93,410.61c8.7,1.53,15.77,2.94,22-6.52,3.16-4.77,16.45-46.23,16.45-46.23L144,287.19a19.75,19.75,0,0,0,4.49-4.77c4.23-6.17,11.11-7.58,12.7-12.17a68.19,68.19,0,0,0,2.11-7.05S174.09,254.56,173.21,252.09Z" style="fill:#ffbe9d"></path><path d="M124.18,275.37a1.33,1.33,0,0,1,0-.22l.18-.62.75-2.4c.67-2.13,1.64-5.17,2.85-9s2.68-8.49,4.34-13.73c.82-2.63,1.7-5.41,2.57-8.33.21-.74.43-1.48.61-2.23a10.82,10.82,0,0,1,.79-2.28,9.51,9.51,0,0,1,3.26-3.74l.06,0h.09c6.48.63,13.55,1.32,20.89,2.3a33.32,33.32,0,0,1,4.32.79,1.45,1.45,0,0,1,.91.8,2.7,2.7,0,0,1,.29,1.12,6.43,6.43,0,0,1-.27,2.19l-.14-.32a30.56,30.56,0,0,1,5.27,2.81,1.51,1.51,0,0,1,.52.69,1.94,1.94,0,0,1,.07.82,4.78,4.78,0,0,1-.47,1.44,12.7,12.7,0,0,1-1.6,2.4l-.06-.37a10.72,10.72,0,0,1,3.89,4.33,1.37,1.37,0,0,1,.13.79,2.56,2.56,0,0,1-.21.73,6.79,6.79,0,0,1-.71,1.23,20.87,20.87,0,0,1-1.73,2.09,76.77,76.77,0,0,1-7.37,6.72l.07-.12c-.45,1.89-1,3.65-1.54,5.31a23.66,23.66,0,0,1-.89,2.4,7.15,7.15,0,0,1-1.42,2,23.26,23.26,0,0,1-3.38,2.69c-1.09.75-2.09,1.42-3,2.08a22.57,22.57,0,0,0-3.7,3.37c-.39.42-.63.8-.83,1a1.92,1.92,0,0,1-.29.34,13.53,13.53,0,0,1,1-1.43,20.78,20.78,0,0,1,3.65-3.48c.86-.68,1.86-1.37,2.94-2.13a23.13,23.13,0,0,0,3.31-2.69,7,7,0,0,0,1.34-1.89,25.1,25.1,0,0,0,.85-2.37c.52-1.65,1.06-3.41,1.49-5.27l0-.07.06,0a77.52,77.52,0,0,0,7.28-6.71,22.45,22.45,0,0,0,1.69-2,7.76,7.76,0,0,0,.66-1.15,1.27,1.27,0,0,0,.06-1.15,10.22,10.22,0,0,0-3.71-4.09l-.22-.16.17-.21a12.27,12.27,0,0,0,1.53-2.3c.38-.78.73-1.85,0-2.32a30,30,0,0,0-5.18-2.74l-.2-.09.06-.23a6.08,6.08,0,0,0,.25-2c0-.64-.28-1.33-.89-1.48a35.41,35.41,0,0,0-4.19-.76c-7.32-1-14.39-1.67-20.87-2.32l.15,0a9,9,0,0,0-3.08,3.52A10.64,10.64,0,0,0,136,239c-.19.77-.42,1.51-.63,2.25-.88,2.93-1.77,5.7-2.61,8.33l-4.45,13.69-3,8.95-.82,2.38c-.09.24-.16.45-.22.6A.74.74,0,0,1,124.18,275.37Z" style="fill:#eb996e"></path><path d="M163.91,262.73a1.44,1.44,0,0,1-.23.38c-.16.23-.42.57-.77,1a29.49,29.49,0,0,1-3.28,3.36,5.59,5.59,0,0,1-3,1.48,3.84,3.84,0,0,1-3.61-1.22,2.58,2.58,0,0,1-.54-2.12,5.19,5.19,0,0,1,1-2,36.52,36.52,0,0,1,3.15-3.36l.21.44a1.74,1.74,0,0,1-1.74-.72,3.35,3.35,0,0,1-.48-1.83l.52.07c-.07.18-.12.38-.21.57a5.39,5.39,0,0,1-5.34,3.24l.24-.38a10.28,10.28,0,0,1,1.35,4,26.6,26.6,0,0,1,.2,3.82,42.21,42.21,0,0,1-.34,6.31,13.89,13.89,0,0,1-1.17,4,8,8,0,0,1-.55,1c-.14.22-.21.32-.23.31s.25-.47.62-1.36a15.48,15.48,0,0,0,1-4,46,46,0,0,0,.23-6.27,28.74,28.74,0,0,0-.24-3.75,10,10,0,0,0-1.31-3.8l-.28-.43.52,0a4.92,4.92,0,0,0,4.81-2.94,3.91,3.91,0,0,0,.18-.51l.52-1.4v1.47a2.66,2.66,0,0,0,.38,1.53,1.2,1.2,0,0,0,1.24.51l.76-.12-.55.56a39.37,39.37,0,0,0-3.11,3.28,4.67,4.67,0,0,0-.93,1.81,2.08,2.08,0,0,0,.42,1.74,3.44,3.44,0,0,0,3.21,1.1,5.33,5.33,0,0,0,2.8-1.34,35.33,35.33,0,0,0,3.36-3.22C163.51,263.18,163.88,262.71,163.91,262.73Z" style="fill:#eb996e"></path><path d="M150,247.75a21.16,21.16,0,0,1,3.14.27c1.95.22,4.66.57,7.73,1H161l.06.06c.47.43.94.89,1.42,1.36.63.63,1.24,1.26,1.79,1.92l.39.52c.06.09.11.2.17.29a.87.87,0,0,1,.09.39c0,.44,0,.82,0,1.21-.11,1.55-.25,2.93-.36,4.09s-.23,2.1-.32,2.75a3.59,3.59,0,0,1-.19,1,3.49,3.49,0,0,1,0-1q.06-1.14.15-2.76c.07-1.2.16-2.58.25-4.08,0-.38,0-.79,0-1.16s-.31-.6-.55-.9c-.53-.63-1.13-1.25-1.76-1.88l-1.4-1.36.14.07c-3.07-.44-5.77-.85-7.71-1.16A19.91,19.91,0,0,1,150,247.75Z" style="fill:#eb996e"></path><path d="M170.16,247.66a4.87,4.87,0,0,1-1.18-.39c-.86-.3-1.92-.69-3.19-1.15a86.76,86.76,0,0,0-10.77-3,74.23,74.23,0,0,0-11-1.48,3.89,3.89,0,0,0-3,1.18,10.17,10.17,0,0,0-.72,1,.83.83,0,0,1,.09-.32,3.1,3.1,0,0,1,.48-.81,3.72,3.72,0,0,1,1.16-.95,4.73,4.73,0,0,1,1.93-.47,62.73,62.73,0,0,1,11.17,1.34,70.69,70.69,0,0,1,10.78,3.13c1.35.52,2.42,1,3.15,1.32A6,6,0,0,1,170.16,247.66Z" style="fill:#eb996e"></path><path d="M165.87,240c0,.08-1.52-.41-4-.92a69.48,69.48,0,0,0-9.83-1.2c-1.94-.11-3.79-.18-5.47-.24a22.84,22.84,0,0,0-4.42,0,3.81,3.81,0,0,0-2.44,1.44,4.94,4.94,0,0,0-.49,1,.64.64,0,0,1,0-.29,2.33,2.33,0,0,1,.31-.79,3.89,3.89,0,0,1,2.54-1.68,20.89,20.89,0,0,1,4.5-.16c1.69,0,3.54.09,5.49.2a55.87,55.87,0,0,1,9.88,1.36,30.25,30.25,0,0,1,2.91.85A4,4,0,0,1,165.87,240Z" style="fill:#eb996e"></path><path d="M147.9,260.28c0,.06-.41.29-1.19.35a4.69,4.69,0,0,1-4.72-3.15c-.25-.74-.2-1.23-.14-1.23s.17.44.48,1.09a5,5,0,0,0,4.38,2.92A9.12,9.12,0,0,1,147.9,260.28Z" style="fill:#eb996e"></path><path d="M83.56,363.81a1.91,1.91,0,0,1,0-.53l.25-1.48c.06-.33.13-.68.2-1.07s.2-.8.31-1.25c.22-.9.46-1.93.83-3A79,79,0,0,1,88,348.73c1.21-2.84,2.63-5.92,4.21-9.1,3.19-6.36,6.22-12,8.22-16.24,1-2.09,1.8-3.8,2.31-5l.61-1.36a2.39,2.39,0,0,1,.25-.47,2.1,2.1,0,0,1-.15.51c-.14.37-.31.84-.53,1.4-.45,1.22-1.19,3-2.16,5.08-1.92,4.25-4.9,10-8.08,16.31-1.58,3.18-3,6.24-4.23,9.06s-2.2,5.41-2.88,7.63c-.39,1.1-.66,2.11-.9,3l-.35,1.24c-.09.38-.17.73-.24,1.06-.14.58-.26,1.06-.35,1.45A2.5,2.5,0,0,1,83.56,363.81Z" style="fill:#eb996e"></path></g><g id="freepik--character-3--inject-4"><path d="M676.06,256.57l-.2.06c-1.56-6.12-8.85-34.81-8.85-38.24,0-3.84-7.08-5.46-7.08-5.46s-20.22,1.82-25.28,2.43-4.72,7.34-4.72,7.34-3.77,2.16-4.58,4.59,1.41,7.68,1.41,7.68l-2.42,1.59s.4,8.33,1.41,11.36,8.7,7.08,11.33,6.67.4-4.24.4-4.24l3,.85c-1.28,1,0,11,5.66,12.6a8.62,8.62,0,0,1,2.35,1.11l-14.19,70.9-39.2-36.34L563.6,349.92S617.73,394,627.75,398c12.26,4.89,22.11,6.06,34.27-1.58C684.2,382.47,677.45,274.14,676.06,256.57Z" style="fill:#b78876"></path><path d="M635.45,230.71a32.06,32.06,0,0,1-4.9,2.91,30.74,30.74,0,0,1-5.15,2.46,31.6,31.6,0,0,1,4.9-2.92A31.13,31.13,0,0,1,635.45,230.71Z" style="fill:#995037"></path><path d="M660.43,223a3.05,3.05,0,0,0,0-1.31,3.42,3.42,0,0,0-2.39-2.42c-1.46-.48-3.34-.23-5.4-.13s-4.34.3-6.71.56A71.2,71.2,0,0,0,634,222c-1.5.44-2.7.86-3.52,1.16a6.23,6.23,0,0,1-1.3.42,7.14,7.14,0,0,1,1.22-.61,37.18,37.18,0,0,1,3.49-1.32,60.63,60.63,0,0,1,12-2.42c2.39-.26,4.67-.42,6.74-.52s4-.31,5.54.25a3.61,3.61,0,0,1,2.48,2.73,2.13,2.13,0,0,1-.07,1C660.51,222.91,660.44,223,660.43,223Z" style="fill:#995037"></path><path d="M640,250.12a2.07,2.07,0,0,1-1.24.13,5.28,5.28,0,0,1-4.39-3.8,2,2,0,0,1-.05-1.25c.09,0,.14.46.4,1.14a5.91,5.91,0,0,0,1.62,2.27,5.8,5.8,0,0,0,2.48,1.27C639.52,250.05,640,250,640,250.12Z" style="fill:#995037"></path><path d="M634.53,245.77a4,4,0,0,1-2.52,1.68,4,4,0,0,1-3,0,28.26,28.26,0,0,0,2.89-.45C633.4,246.52,634.42,245.65,634.53,245.77Z" style="fill:#995037"></path><path d="M640,373.37a7.91,7.91,0,0,1-1-1.21,13.46,13.46,0,0,1-1-1.51,20.43,20.43,0,0,1-1.19-2.1,22.58,22.58,0,0,1-1.19-2.68,29.08,29.08,0,0,1-1.06-3.19,43.46,43.46,0,0,1-1.23-7.59,101.23,101.23,0,0,1,.25-13.94c.13-1.7.24-3.12.32-4.2a8.67,8.67,0,0,1,.19-1.54,9.78,9.78,0,0,1,0,1.55c0,1-.08,2.44-.16,4.21a124,124,0,0,0-.1,13.88,44.75,44.75,0,0,0,1.18,7.51,31.88,31.88,0,0,0,1,3.16,26.22,26.22,0,0,0,1.12,2.67C638.7,371.58,640.1,373.3,640,373.37Z" style="fill:#995037"></path><path d="M547.51,130.3a43,43,0,0,0-42.8-39.64h-2.22c-24,1.35-36.29,22.51-34.28,46.48l4.31,110.76h55.06l-.49-36.05s23.1-3.54,23.43-26.63C550.68,174.07,549.14,151.09,547.51,130.3Z" style="fill:#b78876"></path><path d="M527.28,211.82s-14.74.85-30.23-8.92c0,0,7.08,16.63,30.12,14.6Z" style="fill:#995037"></path><path d="M539.32,145.23a3.29,3.29,0,0,1-3.18,3.32,3.15,3.15,0,0,1-3.39-3,3.29,3.29,0,0,1,3.18-3.32A3.14,3.14,0,0,1,539.32,145.23Z" style="fill:#263238"></path><path d="M542.52,141.59c-.41.43-2.9-1.43-6.45-1.42s-6.15,1.77-6.53,1.33c-.19-.19.23-1,1.36-1.79a9.1,9.1,0,0,1,5.24-1.6,8.69,8.69,0,0,1,5.13,1.67C542.36,140.62,542.73,141.4,542.52,141.59Z" style="fill:#263238"></path><path d="M504.45,146.53a3.29,3.29,0,0,1-3.18,3.32,3.15,3.15,0,0,1-3.4-3,3.3,3.3,0,0,1,3.19-3.32A3.16,3.16,0,0,1,504.45,146.53Z" style="fill:#263238"></path><path d="M507.61,143.36c-.41.43-2.91-1.42-6.45-1.42s-6.15,1.77-6.54,1.33c-.19-.19.23-1,1.37-1.79a9,9,0,0,1,5.23-1.6,8.71,8.71,0,0,1,5.13,1.67C507.44,142.39,507.81,143.17,507.61,143.36Z" style="fill:#263238"></path><path d="M520.47,168.51c0-.2,2.19-.58,5.77-1,.9-.1,1.76-.27,1.91-.89a4.61,4.61,0,0,0-.59-2.69l-2.67-6.9c-3.7-9.83-6.38-17.91-6-18.06s3.72,7.71,7.42,17.53l2.55,7c.34,1,.93,2.2.46,3.55a2.28,2.28,0,0,1-1.49,1.33,6.64,6.64,0,0,1-1.54.21C522.72,168.7,520.49,168.71,520.47,168.51Z" style="fill:#263238"></path><path d="M510,171c.57,0,.57,3.81,3.86,6.55s7.39,2.33,7.42,2.87c.06.24-.91.74-2.65.79a9.61,9.61,0,0,1-6.19-2.18,8.28,8.28,0,0,1-3-5.49C509.33,171.88,509.76,170.92,510,171Z" style="fill:#263238"></path><path d="M509.16,139.58c-.55.86-3.9-.37-8.07-.8s-7.71-.08-8-1c-.15-.46.62-1.22,2.15-1.82a14.09,14.09,0,0,1,12.29,1.4C508.83,138.26,509.41,139.17,509.16,139.58Z" style="fill:#263238"></path><path d="M544.13,129.28c-.52,1-3.63,1-7.1,1.9s-6.26,2.31-7.16,1.68c-.41-.31-.16-1.22.92-2.31a11.93,11.93,0,0,1,5.4-2.87,11.72,11.72,0,0,1,6.09,0C543.72,128.12,544.35,128.81,544.13,129.28Z" style="fill:#263238"></path><path d="M471.67,154.24c-.4-.17-15.85-4.73-15.38,11.06s16.22,12,16.23,11.6S471.67,154.24,471.67,154.24Z" style="fill:#b78876"></path><path d="M468.91,171.06c-.07-.05-.27.2-.73.43a2.71,2.71,0,0,1-2.05.1c-1.69-.56-3.17-3.16-3.33-6a9.23,9.23,0,0,1,.65-4,3.18,3.18,0,0,1,2-2.17,1.4,1.4,0,0,1,1.64.71c.23.43.13.75.22.77s.33-.27.18-.92a1.73,1.73,0,0,0-.65-1,2.07,2.07,0,0,0-1.53-.36,3.88,3.88,0,0,0-2.8,2.54,9.32,9.32,0,0,0-.82,4.42c.2,3.18,1.91,6.11,4.21,6.7a3,3,0,0,0,2.51-.49C468.89,171.44,469,171.09,468.91,171.06Z" style="fill:#995037"></path><path d="M482,107.32l65.82,1.45c-2.05-4.54-5.7-8.17-9.67-11.18a51.41,51.41,0,0,0-29.8-10.73c-10.74-.19-32.59,12.89-40.36,20.29-6.22,5.92-6.18,11-6.18,11-1,8.53,3.78,18.23,5.68,26.61,1,4.32,2.87,17.39,2.87,17.39h0c3.62,0,5-2.9,4.42-6.48l-.68-14.07s12.33-8.76,6.49-24.8C479.67,115.57,477.67,109.71,482,107.32Z" style="fill:#263238"></path><path d="M467.57,108.05c-1.68-5.77,0-12.19,3.69-16.91A19.32,19.32,0,0,1,487,83.86c3.07.12,6.13,1,9.18.66,5.7-.62,10.09-5.19,15.37-7.4a20.05,20.05,0,0,1,23.67,7.1c2,3,3.31,6.68,6.38,8.56,2.65,1.63,6,1.49,9,2.39,6,1.82,10.16,8.21,9.84,14.5s-4.71,12-10.51,14.5a21.07,21.07,0,0,1-18.18-1.28c-5-2.77-9.42-7.48-15.1-7.31-5.88.17-11,5.72-16.79,4.57-3-.61-5.36-2.94-7.58-5.08s-4.76-4.34-7.85-4.52-4.68,4-3.58,6.93l-13.26-9.43" style="fill:#263238"></path><path d="M546.55,100.42a1,1,0,0,1-.11.23,6.48,6.48,0,0,1-.38.63,10.89,10.89,0,0,1-1.88,2.15,11.74,11.74,0,0,1-3.92,2.26,11.21,11.21,0,0,1-6,.36,11.89,11.89,0,0,1-6.3-3.58c-1.8-2-2.86-4.62-4.54-6.94a8.53,8.53,0,0,0-7.55-3.84,9.94,9.94,0,0,0-4.48,1.2,8.44,8.44,0,0,0-3.3,3.4c-.79,1.44-1.36,3-2.32,4.44a5.44,5.44,0,0,1-4.21,2.56A8.17,8.17,0,0,1,497,102a17.38,17.38,0,0,1-3.49-2.89c-2-2.06-4-4.1-6.53-4.65A8.28,8.28,0,0,0,480.36,96a11.41,11.41,0,0,0-3.63,4.5,19.08,19.08,0,0,0-1.36,4.23c-.24,1.2-.35,2.15-.43,2.79a7.22,7.22,0,0,1-.14,1,.67.67,0,0,1,0-.25c0-.17,0-.41,0-.74a25.19,25.19,0,0,1,.32-2.83,18,18,0,0,1,1.28-4.33,11.54,11.54,0,0,1,3.69-4.71,8.73,8.73,0,0,1,7-1.71c2.7.59,4.79,2.73,6.82,4.75a16.92,16.92,0,0,0,3.39,2.79,7.57,7.57,0,0,0,4.25,1.22,4.81,4.81,0,0,0,3.73-2.3c.89-1.31,1.46-2.88,2.28-4.39a9.14,9.14,0,0,1,3.55-3.64,10.58,10.58,0,0,1,4.78-1.28,10,10,0,0,1,4.66,1,9.84,9.84,0,0,1,3.38,3.08c1.71,2.42,2.75,5,4.46,6.92a11.37,11.37,0,0,0,6,3.5,10.92,10.92,0,0,0,5.76-.25,12.08,12.08,0,0,0,3.87-2.12A15.13,15.13,0,0,0,546.55,100.42Z" style="fill:#455a64"></path><path d="M558.48,100.65a3.85,3.85,0,0,1,.27,1.27,10.16,10.16,0,0,1-.34,3.53,12.22,12.22,0,0,1-2.46,4.64,14.43,14.43,0,0,1-5.21,3.79,21.32,21.32,0,0,1-11.48,1.3,30.81,30.81,0,0,1-3.45-.69,4.42,4.42,0,0,1-1.22-.41c0-.1,1.8.34,4.72.65a22.33,22.33,0,0,0,11.18-1.43,14.29,14.29,0,0,0,5-3.59,12.3,12.3,0,0,0,2.48-4.39A14,14,0,0,0,558.48,100.65Z" style="fill:#455a64"></path><path d="M508.51,157.33a186.33,186.33,0,0,1-19.68,0,186.33,186.33,0,0,1,19.68,0Z" style="fill:#EFC342"></path><path d="M507.53,162.11a86.9,86.9,0,0,1-9.54-.2,85.7,85.7,0,0,1-9.52-.73,178.5,178.5,0,0,1,19.06.93Z" style="fill:#EFC342"></path><path d="M547.65,156.77a95.51,95.51,0,0,1-13.94.63,48.1,48.1,0,0,1,7-.58A46.1,46.1,0,0,1,547.65,156.77Z" style="fill:#EFC342"></path><path d="M546.58,161.69a35.39,35.39,0,0,1-6,.95,34.07,34.07,0,0,1-6,.44,35.39,35.39,0,0,1,6-1A34.07,34.07,0,0,1,546.58,161.69Z" style="fill:#EFC342"></path><path d="M481.29,130.44c0-.31-12.5-.55-18.37-1.31l1.83,6.28a46.24,46.24,0,0,0,14.32.78S481.29,132.53,481.29,130.44Z" style="fill:#e0e0e0"></path><path d="M482.31,125.54s-.27.12-.78.23a15.3,15.3,0,0,1-2.18.33,30.39,30.39,0,0,1-7.28-.24,60.61,60.61,0,0,1-7.11-1.49,16.25,16.25,0,0,1-2.87-.91,19.07,19.07,0,0,1,3,.55c1.81.39,4.31.94,7.1,1.34a38.91,38.91,0,0,0,7.17.39C481.16,125.65,482.3,125.46,482.31,125.54Z" style="fill:#e0e0e0"></path><path d="M552.35,243s16.3,4,24.28,17.38c8.18,13.76,38.92,53.85,38.92,53.85L578,367.35Z" style="fill:#455a64"></path><path d="M589.74,466.73c0-.48-1.3-20.41-1.31-21-.62-25.67-8.8-83.08-8.8-83.08C578.47,354.06,553.08,243,553.08,243l-25.8-11.47-6.81,15-48.84-21.45-50.1,27.32-8.3,59.1s32.24,74.42,31.16,79.81,7.1,36.61,7.1,36.61L451,466.73Z" style="fill:#455a64"></path><g style="opacity:0.30000000000000004"><path d="M548.24,412.57c-6.63,9.58-10.8,16.35-20.4,19.54-18.4,6.11-24.33,2.74-33.27-2-7.39-3.9-12-12.79-17.29-19.3-13.78-17.11-19.26-27.61-30.7-45l-4.34,3c7.83,22.84,1.53,10.78,13.63,31.69,7,12.07,14.82,24,25.67,32.72s25.2,14.1,38.88,11.37c12.42-2.47,22.7-11.09,31.43-20.27,12.14-12.77,25.23-39.4,26.18-57C577.94,368.6,556.82,400.18,548.24,412.57Z"></path></g><path d="M535.69,235.25a1.76,1.76,0,0,1-.17.43l-.55,1.23c-.51,1.12-1.23,2.67-2.14,4.63l-7.74,16.35-.09.21-.21-.1-19.65-8.87-30-13.67-9.06-4.19-2.45-1.17-.63-.31a1.72,1.72,0,0,1-.21-.12s.09,0,.23.07l.66.27,2.49,1.07,9.12,4,30,13.52L525,257.58l-.3.11c3.24-6.67,6-12.28,7.9-16.27,1-1.93,1.72-3.47,2.26-4.57l.62-1.2A2.48,2.48,0,0,1,535.69,235.25Z" style="fill:#263238"></path><path d="M527.28,231.51a21.08,21.08,0,0,1-1.41,3.47c-1,2.11-2.32,5-3.87,8.16s-3,6-4.07,8.07a18.8,18.8,0,0,1-1.87,3.24.86.86,0,0,1,.08-.25c.1-.21.2-.43.3-.68.33-.69.71-1.52,1.16-2.48l3.94-8.12,4-8.09,1.24-2.44A4.66,4.66,0,0,1,527.28,231.51Z" style="fill:#263238"></path><path d="M565.36,306.41c-.15,0-1.05-5.78-2-12.94s-1.64-13-1.5-13,1,5.77,2,12.94S565.5,306.39,565.36,306.41Z" style="fill:#263238"></path><g style="opacity:0.5"><polygon points="558 296.74 551.09 296.69 549.83 289.8 543.68 289.74 544.95 296.99 537.52 297.22 538.55 303.05 545.99 302.94 547.09 309.19 553.22 309.14 552.08 302.37 559.2 302.15 558 296.74"></polygon></g><path d="M588.44,447.33a4.67,4.67,0,0,1-.13-.8l-.27-2.28-.91-8.4c-.72-7.15-1.71-16.93-2.8-27.74s-2-20.61-2.65-27.76l-.74-8.42c-.07-1-.13-1.72-.18-2.29a4.41,4.41,0,0,1,0-.8,4.65,4.65,0,0,1,.13.79q.11.86.27,2.28l.91,8.4c.72,7.15,1.71,16.93,2.8,27.75s2,20.6,2.64,27.75c.31,3.52.57,6.38.75,8.42.07,1,.13,1.72.17,2.29A4.14,4.14,0,0,1,588.44,447.33Z" style="fill:#263238"></path><path d="M627,263.22s1-4.45.34-5.62a9,9,0,0,0-2.55-2.41s-1-7.11-2.58-9.33c-1.77-2.5-8.67-2.2-8.67-2.2s-1.25-1.65-2.28-3.3-15.17-2.74-17.66-2.67-3.35,6.79-3.35,6.79-5.35-1-6.3-.39-8,13-8.64,15.72,2.95,10.78,2.95,10.78c.78,1.91,6,12.73,6,12.73l-3.78,5.11-63.66,75.44S502.24,340.93,485,309.34c-18.82-34.54-29.1-60.32-49.42-60.91l-22.86,62.11c4.79,11.68,66.85,106.78,76.6,115.84s21,12.05,41.39,4.73c14.83-5.32,68-101.24,78.77-120.8h0l11.68-18.56,8.67-15.94s.13-5.86.5-8.32S627,263.22,627,263.22Z" style="fill:#b78876"></path><path d="M597.73,242a8.44,8.44,0,0,0-1.05,2.34,6.67,6.67,0,0,1-1.08,2.71,4.68,4.68,0,0,1-1.37,1.11,16.78,16.78,0,0,1-1.68.74,9,9,0,0,0-4.53,4c-.76,1.4-.9,2.41-1,2.39a1.61,1.61,0,0,1,.06-.71,7.34,7.34,0,0,1,.62-1.85,8.82,8.82,0,0,1,4.65-4.32,6.75,6.75,0,0,0,2.88-1.68,6.68,6.68,0,0,0,1.09-2.5A3.84,3.84,0,0,1,597.73,242Z" style="fill:#995037"></path><path d="M593.66,247.87s-.32.39-1.06.34a2.52,2.52,0,0,1-2.09-1.64,5.41,5.41,0,0,1-.27-2.63c.09-.67.24-1.05.31-1s.05.42.06,1.06a6.84,6.84,0,0,0,.38,2.41,2.38,2.38,0,0,0,1.67,1.48C593.25,248,593.63,247.79,593.66,247.87Z" style="fill:#995037"></path><path d="M587.93,252.12c-.16-.05.12-1,.5-2.06s.15-2,.31-2,.19.2.29.59a3.15,3.15,0,0,1-.1,1.58A4.65,4.65,0,0,1,587.93,252.12Z" style="fill:#995037"></path><path d="M614.49,252.18a37,37,0,0,0,0-4.33,33.92,33.92,0,0,0-1-4.21,7.5,7.5,0,0,1,1.5,4.15A7.59,7.59,0,0,1,614.49,252.18Z" style="fill:#995037"></path><path d="M624.19,260.36a16.4,16.4,0,0,1,.3-2.75,17.52,17.52,0,0,1,.23-2.76,4.88,4.88,0,0,1,.29,2.81A5.09,5.09,0,0,1,624.19,260.36Z" style="fill:#995037"></path><path d="M626.18,268.54a17.07,17.07,0,0,1,.86-2.75,16.2,16.2,0,0,1,.85-2.75,5.63,5.63,0,0,1-.35,2.91A5.5,5.5,0,0,1,626.18,268.54Z" style="fill:#995037"></path><path d="M519.46,399.16a9.52,9.52,0,0,1-.72-1.27c-.22-.42-.48-.93-.74-1.55s-.59-1.3-.87-2.1a43.6,43.6,0,0,1-1.75-5.65,51.86,51.86,0,0,1-1.11-7.15,49.86,49.86,0,0,1,0-7.25,44,44,0,0,1,.88-5.85c.16-.82.38-1.55.55-2.2a15.89,15.89,0,0,1,.5-1.64,7.85,7.85,0,0,1,.52-1.36,6.76,6.76,0,0,1-.33,1.42c-.12.45-.27,1-.41,1.65s-.34,1.38-.47,2.21a49,49,0,0,0-.76,5.81,48.81,48.81,0,0,0,1.07,14.26,50.54,50.54,0,0,0,1.63,5.63c.25.79.55,1.49.79,2.11s.46,1.14.66,1.57A7.13,7.13,0,0,1,519.46,399.16Z" style="fill:#995037"></path><path d="M427.11,248.81s-24.48,10.1-19.71,47.58a27.52,27.52,0,0,0,2.73,8.94c7.19,14.18,31.77,62.7,32.11,63.51s57-40,57-40S466.19,231.91,427.11,248.81Z" style="fill:#455a64"></path><path d="M410.13,305.33a3,3,0,0,1,.17.29c.11.22.27.5.47.88l1.77,3.43,6.64,13,23.27,45.81-.35-.09L485,338.55l14.15-9.92L499,329c-3.66-6.56-7.39-12.83-11.19-18.72s-7.68-11.4-11.21-16.72-6.76-10.46-9.63-15.31-5.35-9.47-7.91-13.47a40.46,40.46,0,0,0-8.24-9.69,24.1,24.1,0,0,0-8.39-4.46,17.46,17.46,0,0,0-6-.68,13.59,13.59,0,0,0-1.55.17l-.53.07s.17-.05.52-.12a11.54,11.54,0,0,1,1.55-.22,17.13,17.13,0,0,1,6,.6,24,24,0,0,1,8.51,4.43,40.39,40.39,0,0,1,8.35,9.71c2.6,4,5.07,8.63,8,13.45s6.1,10,9.66,15.26,7.46,10.8,11.25,16.71,7.55,12.18,11.22,18.74l.11.21-.19.13L485.26,339l-42.89,30-.22.16-.12-.25c-9.47-18.8-17.46-34.69-23.1-45.89L412.41,310c-.74-1.5-1.32-2.66-1.71-3.46-.19-.39-.33-.68-.43-.9A3.31,3.31,0,0,1,410.13,305.33Z" style="fill:#263238"></path></g><g id="freepik--character-2--inject-4"><path d="M462,313.4h0v0c-.44-1.39-.88-2.69-1.33-3.87-2.28-6.68-6.66-19.77-6.66-21.63,0-2.52-4.64-3.58-4.64-3.58s-13.26,1.19-16.58,1.59-3.09,4.81-3.09,4.81-2.48,1.42-3,3,.93,5,.93,5l-1.59,1s.26,5.46.93,7.45,5.7,4.64,7.42,4.38.27-2.79.27-2.79l2,.56c-.84.63,0,7.24,3.71,8.26a6.05,6.05,0,0,1,1.61.77l1.56,37L426.66,340l-24.1,22.78S432.38,388,439,390.58c8,3.2,14.49,4,22.47-1C474.41,381.37,468.89,335.36,462,313.4Z" style="fill:#ffbe9d"></path><path d="M433.27,295.94a14,14,0,0,1-3.18,2,14.18,14.18,0,0,1-3.41,1.53,13.31,13.31,0,0,1,3.17-2A13.8,13.8,0,0,1,433.27,295.94Z" style="fill:#eb996e"></path><path d="M449.64,290.9a2.65,2.65,0,0,0,0-.86,2.22,2.22,0,0,0-1.56-1.53,10.88,10.88,0,0,0-3.51-.06c-1.36.09-2.84.21-4.39.38a47.33,47.33,0,0,0-7.85,1.45c-2,.56-3.14,1.06-3.18,1a2.88,2.88,0,0,1,.79-.44,23.47,23.47,0,0,1,2.28-.89,38.4,38.4,0,0,1,7.9-1.62c1.56-.17,3.06-.27,4.42-.34a10.1,10.1,0,0,1,3.66.2,2.39,2.39,0,0,1,1.64,1.84C449.91,290.63,449.65,290.92,449.64,290.9Z" style="fill:#eb996e"></path><path d="M436.24,308.67c0,.06-.3.18-.82.15a3.41,3.41,0,0,1-2.93-2.53c-.11-.52,0-.84,0-.84a6.07,6.07,0,0,0,1.38,2.16A6.29,6.29,0,0,0,436.24,308.67Z" style="fill:#eb996e"></path><path d="M432.66,305.82c.11.08-.5.86-1.63,1.19s-2,0-2-.12.89-.08,1.87-.38S432.56,305.71,432.66,305.82Z" style="fill:#eb996e"></path><path d="M323.81,304s-34.41,15.22-38,32.32-9.74,52.17-9.74,52.17l37.86,4.85-1.21,73.42,107.85,0-20-124.26L405.45,326c-5.08-17.07-10.85-23.87-37.22-25.54Z" style="fill:#EFC342"></path><path d="M380.85,390.34a13.64,13.64,0,0,0,.95-5.26c1.14-.95,5.33-1.93,5.33-1.93l-.31-1.57a23.8,23.8,0,0,1-5.58-.17,13.53,13.53,0,0,0-1.81-3.79,9.13,9.13,0,0,1,2.3-3l-1.06-1.2a13.5,13.5,0,0,1-3.12,2,14.35,14.35,0,0,0-2.51-1.89c-.28-1.43,1-5.62,1-5.62l-1.51-.53a24.14,24.14,0,0,1-3,4.72,13.39,13.39,0,0,0-4-.43,9.88,9.88,0,0,1-1.4-3.53l-1.57.32a13.14,13.14,0,0,1,.14,3.63,13.7,13.7,0,0,0-3.29,1.31c-1.43-.55-4.37-3.66-4.37-3.66l-1.22,1.07a22.19,22.19,0,0,1,2.62,4.83,13.64,13.64,0,0,0-2.62,3.68,9.77,9.77,0,0,1-3.46-.53l-.51,1.54a13,13,0,0,1,3,1.52,13.63,13.63,0,0,0-.45,3.63,25.05,25.05,0,0,1-5.06,1.72l.31,1.6a21.16,21.16,0,0,1,5.23.13,13.24,13.24,0,0,0,1.89,4.1,9.6,9.6,0,0,1-2.19,2.69l1.08,1.22a13.51,13.51,0,0,1,2.83-1.85,13.74,13.74,0,0,0,4.9,3.09,23.52,23.52,0,0,1,.3,5.52l1.62.14a21.31,21.31,0,0,1,1.53-4.89,13.59,13.59,0,0,0,3.65-.14,13.2,13.2,0,0,0,1.8-.47,10,10,0,0,1,1.62,3l1.53-.54a13.48,13.48,0,0,1-.65-3.54,13.77,13.77,0,0,0,4.28-3.78,24.45,24.45,0,0,1,5,2l.8-1.41A22.67,22.67,0,0,1,380.85,390.34ZM365.15,372h0Z" style="fill:#f5f5f5"></path><path d="M357.35,368.87c.2.22-.19.89-.86,1.5a5.42,5.42,0,0,1-.67.51c-.42.25-.77.34-.9.19s.18-.89.86-1.49S357.16,368.65,357.35,368.87Z" style="fill:#f5f5f5"></path><g style="opacity:0.30000000000000004"><path d="M355.88,370.84a5.13,5.13,0,0,0,1.19-1.1l.7.7a5.4,5.4,0,0,1-1.67.68Z"></path></g><path d="M352.2,377.9c.28.09.28.86,0,1.73a4.36,4.36,0,0,1-.32.78c-.24.43-.5.68-.68.62s-.29-.86,0-1.72S351.91,377.81,352.2,377.9Z" style="fill:#f5f5f5"></path><g style="opacity:0.30000000000000004"><path d="M351.92,380.34a3.48,3.48,0,0,0,.47-1.55c.29.1.61.19.94.27a4.93,4.93,0,0,1-1.08,1.4Z"></path></g><path d="M348.78,386.53c.29-.06.68.61.86,1.49a3.75,3.75,0,0,1,.1.84c0,.49-.09.84-.28.88s-.67-.61-.86-1.5S348.5,386.59,348.78,386.53Z" style="fill:#f5f5f5"></path><g style="opacity:0.30000000000000004"><path d="M349.74,388.79a5.15,5.15,0,0,0-.35-1.59l1-.24a5.46,5.46,0,0,1-.25,1.78Z"></path></g><path d="M353.77,395.45c.22-.2.89.18,1.5.85a4.58,4.58,0,0,1,.51.67c.25.42.34.78.2.91s-.89-.19-1.5-.86S353.55,395.65,353.77,395.45Z" style="fill:#f5f5f5"></path><g style="opacity:0.30000000000000004"><path d="M355.74,396.91a3.68,3.68,0,0,0-1.11-1.19c.23-.19.47-.42.72-.67a5.23,5.23,0,0,1,.66,1.64Z"></path></g><path d="M362.92,404.1c0-.3.78-.48,1.68-.42a5.72,5.72,0,0,1,.83.14c.47.13.78.32.77.52s-.77.47-1.68.41S362.9,404.39,362.92,404.1Z" style="fill:#f5f5f5"></path><g style="opacity:0.30000000000000004"><path d="M365.36,403.8a5.19,5.19,0,0,0-1.62-.1c0-.3,0-.64,0-1a5.42,5.42,0,0,1,1.64.74Z"></path></g><path d="M373.38,402c-.1-.28.51-.76,1.36-1.07a4.69,4.69,0,0,1,.81-.22c.48-.07.84,0,.91.16s-.51.75-1.36,1.06S373.48,402.3,373.38,402Z" style="fill:#f5f5f5"></path><g style="opacity:0.30000000000000004"><path d="M375.48,400.76a3.55,3.55,0,0,0-1.52.57c-.1-.29-.22-.59-.36-.91a5.27,5.27,0,0,1,1.77,0Z"></path></g><path d="M384.11,396.39c-.25-.14-.11-.9.33-1.69a4.49,4.49,0,0,1,.48-.7c.31-.37.62-.57.79-.48s.11.9-.33,1.69S384.37,396.53,384.11,396.39Z" style="fill:#f5f5f5"></path><g style="opacity:0.30000000000000004"><path d="M384.87,394.06a5,5,0,0,0-.77,1.42l-.89-.44a5.46,5.46,0,0,1,1.36-1.18Z"></path></g><path d="M362,387.32c.19,1-.23,2-.93,2.12s-1.42-.62-1.61-1.67.23-2,.93-2.11S361.84,386.28,362,387.32Z" style="fill:#e0e0e0"></path><path d="M359.5,376.65c.84-.65,1.87-.73,2.31-.17s.12,1.55-.71,2.2-1.87.73-2.31.17S358.67,377.3,359.5,376.65Z" style="fill:#e0e0e0"></path><path d="M367.34,392.64a1.27,1.27,0,1,1-1.47-1A1.27,1.27,0,0,1,367.34,392.64Z" style="fill:#e0e0e0"></path><path d="M374.18,380.07a1.55,1.55,0,1,1-.48-2.14A1.55,1.55,0,0,1,374.18,380.07Z" style="fill:#e0e0e0"></path><path d="M373.92,392.91a.92.92,0,1,1-1.08-.75A.93.93,0,0,1,373.92,392.91Z" style="fill:#e0e0e0"></path><path d="M387.73,383.82c-.28.06-.66-.61-.85-1.48a5.33,5.33,0,0,1-.1-.83c0-.48.09-.83.28-.87s.67.61.85,1.48S388,383.76,387.73,383.82Z" style="fill:#f5f5f5"></path><g style="opacity:0.30000000000000004"><path d="M386.78,381.58a5.35,5.35,0,0,0,.35,1.57l-.95.24a5.17,5.17,0,0,1,.26-1.76Z"></path></g><path d="M382.59,374.92c-.22.2-.88-.18-1.48-.84a4.53,4.53,0,0,1-.51-.66c-.25-.42-.34-.77-.19-.89s.87.18,1.48.84S382.8,374.73,382.59,374.92Z" style="fill:#f5f5f5"></path><g style="opacity:0.30000000000000004"><path d="M380.64,373.48a3.56,3.56,0,0,0,1.09,1.17c-.22.2-.46.42-.7.67a5.17,5.17,0,0,1-.66-1.62Z"></path></g><path d="M376.92,367.72c-.09.28-.85.28-1.7,0a4.24,4.24,0,0,1-.77-.33c-.42-.23-.67-.49-.61-.68s.86-.27,1.71,0S377,367.45,376.92,367.72Z" style="fill:#f5f5f5"></path><g style="opacity:0.30000000000000004"><path d="M374.51,367.42a5.42,5.42,0,0,0,1.53.49c-.08.28-.18.61-.27.94a5.43,5.43,0,0,1-1.39-1.11Z"></path></g><path d="M366.83,367.54c.06.29-.6.67-1.48.86a5.21,5.21,0,0,1-.82.1c-.49,0-.83-.09-.87-.28s.6-.66,1.47-.85S366.77,367.26,366.83,367.54Z" style="fill:#f5f5f5"></path><g style="opacity:0.30000000000000004"><path d="M364.6,368.5a3.56,3.56,0,0,0,1.56-.36c.06.3.13.62.22.95a5.13,5.13,0,0,1-1.72-.25Z"></path></g><path d="M377.21,389c-.32,1-1.13,1.66-1.81,1.44s-1-1.21-.65-2.22,1.14-1.65,1.82-1.44S377.53,388,377.21,389Z" style="fill:#e0e0e0"></path><path d="M369.75,383.49a1.92,1.92,0,1,1-2.23-1.55A1.93,1.93,0,0,1,369.75,383.49Z" style="fill:#e0e0e0"></path><path d="M367.36,414.49a28.74,28.74,0,1,1,28.73-28.74A28.77,28.77,0,0,1,367.36,414.49Zm0-54.9a26.16,26.16,0,1,0,26.16,26.16A26.19,26.19,0,0,0,367.36,359.59Z" style="fill:#263238"></path><polygon points="385.62 364.81 348.31 404.96 350.14 406.69 387.41 366.44 385.62 364.81" style="fill:#263238"></polygon><polygon points="394.22 307.07 437.04 347.94 405.92 375.63 394.22 307.07" style="fill:#EFC342"></polygon><g style="opacity:0.30000000000000004"><path d="M317,441c16.67-3.16,31.33-13.86,42.7-27s19.83-28.61,28.21-44c1.23-2.26,2.2-5.69,0-7-1.78-1.05-3.89.56-5.35,2.06l-40.7,41.7c-10.41,10.68-20.89,21.43-29.33,33.87"></path></g><path d="M315.74,356.27s0,.23,0,.67,0,1.11-.07,1.95c-.07,1.74-.17,4.25-.31,7.45-.29,6.47-.72,15.73-1.23,27v.23l-.23,0L276,388.71l-.27,0,.05-.27c.81-4.61,1.67-9.43,2.54-14.35,2.17-12.22,4.24-23.85,6.13-34.44a23.34,23.34,0,0,1,2.45-7.48,33.71,33.71,0,0,1,4.22-6.13,59.31,59.31,0,0,1,9.86-8.95,123.3,123.3,0,0,1,16.45-10c2-1,3.61-1.81,4.69-2.33l1.23-.57a4.63,4.63,0,0,1,.43-.18l-.4.22-1.21.63-4.65,2.41a129,129,0,0,0-16.32,10.12,59.7,59.7,0,0,0-9.75,8.94,33.35,33.35,0,0,0-4.14,6.06,22.79,22.79,0,0,0-2.39,7.37c-1.87,10.59-3.93,22.22-6.09,34.43-.87,4.92-1.73,9.74-2.55,14.35l-.22-.3,37.85,4.9-.23.2c.59-11.25,1.07-20.5,1.41-27,.19-3.2.33-5.71.43-7.45.05-.83.1-1.48.13-1.95S315.74,356.27,315.74,356.27Z" style="fill:#263238"></path><path d="M410.27,402.71a3.29,3.29,0,0,1-.16-.64l-.37-1.85c-.31-1.61-.73-4-1.24-6.84-1-5.78-2.29-13.78-3.65-22.63s-2.6-16.79-3.51-22.65c-.45-2.85-.81-5.17-1.07-6.86l-.27-1.87a2.71,2.71,0,0,1-.06-.66,4.58,4.58,0,0,1,.16.64c.09.48.22,1.1.37,1.86.31,1.61.73,3.94,1.23,6.83,1,5.78,2.29,13.79,3.66,22.63s2.6,16.8,3.51,22.65c.44,2.85.81,5.18,1.07,6.86l.27,1.87A2.73,2.73,0,0,1,410.27,402.71Z" style="fill:#263238"></path><path d="M405.92,375.63a.67.67,0,0,1,.13-.15l.43-.39,1.67-1.49,6.33-5.55,22.16-19.22,0,.36L420.83,333.1c-6.15-6.21-12-12.1-17.46-17.37-2.73-2.63-5.31-5.14-7.84-7.36a23.47,23.47,0,0,0-8.06-4.49,52.66,52.66,0,0,0-7.44-2c-2.23-.43-4.16-.72-5.75-.9s-2.83-.31-3.67-.37l-.95-.08-.33,0a1.19,1.19,0,0,1,.33,0l1,0c.84,0,2.08.11,3.68.28s3.54.41,5.79.82a50.43,50.43,0,0,1,7.5,1.91,23.77,23.77,0,0,1,8.23,4.52c2.55,2.22,5.14,4.71,7.88,7.33,5.45,5.26,11.35,11.14,17.5,17.36,5.61,5.66,10.94,11.11,15.77,16.11l.18.18-.19.17-22.28,19.08-6.43,5.44-1.72,1.43-.45.37A1,1,0,0,1,405.92,375.63Z" style="fill:#263238"></path><path d="M389.09,354.55s1.18-2.66,1-3.47a5.58,5.58,0,0,0-1.28-1.84s.31-4.57-.39-6.16c-.78-1.79-5.13-2.51-5.13-2.51s-.56-1.19-1-2.35-9.12-3.7-10.68-4-3,3.8-3,3.8-3.21-1.32-3.88-1.06-6.71,7.1-7.45,8.68.43,7.12.43,7.12c.16.82,1,4.12,1.53,6.42L314,397l-.06-3.67-31.22-4.17s-6.64,35.23,3.72,45.37c8.35,8.16,24.2,9.19,31,2.08,5.13-5.35,38.4-38.88,54.46-55l.12.13,9.72-10.07,7.49-8.82s.85-3.65,1.4-5.13S389.09,354.55,389.09,354.55Z" style="fill:#ffbe9d"></path><path d="M373.57,337.49a8.36,8.36,0,0,0-.9,1.36,4.23,4.23,0,0,1-1,1.59,4.38,4.38,0,0,1-2.18.78,5.83,5.83,0,0,0-3.32,1.86c-.66.75-.9,1.36-1,1.32s.06-.68.7-1.55a5.6,5.6,0,0,1,3.51-2.14,4.25,4.25,0,0,0,2-.65,4.38,4.38,0,0,0,1-1.38C372.87,337.72,373.55,337.44,373.57,337.49Z" style="fill:#eb996e"></path><path d="M370.27,340.61c0,.05-.25.25-.73.13a1.65,1.65,0,0,1-1.16-1.35,3.18,3.18,0,0,1,.2-1.71c.16-.4.33-.61.39-.59s-.25,1.06-.08,2.21a1.46,1.46,0,0,0,.78,1.09C370,340.56,370.25,340.53,370.27,340.61Z" style="fill:#eb996e"></path><path d="M366.13,342.51c-.14-.08.14-.67.5-1.27s.38-1.15.54-1.17.35.68-.08,1.43S366.25,342.56,366.13,342.51Z" style="fill:#eb996e"></path><path d="M382.71,346c-.14-.07.37-1.21.5-2.7s-.12-2.71,0-2.75a5.32,5.32,0,0,1-.53,5.45Z" style="fill:#eb996e"></path><path d="M387.7,352.39c-.13-.08.18-.8.46-1.71s.45-1.67.59-1.66.21.84-.1,1.82S387.81,352.46,387.7,352.39Z" style="fill:#eb996e"></path><path d="M387.87,357.75c-.11-.09.34-.78.82-1.64s.83-1.61,1-1.57,0,.9-.52,1.82S388,357.85,387.87,357.75Z" style="fill:#eb996e"></path><path d="M345.61,197.77c-6-1.63-13-2.73-18.93-.87-8.13,2.57-13.27,10.46-16.16,18.48s-5.78,16.61-5.33,25.12l3.92-3.16a23.1,23.1,0,0,0,2.47,10.91c3.53,6.63,10.71,10.33,17.46,13.64,2.7,1.32,5.8,2.67,8.6,1.58,2.55-1,3.95-3.66,5.13-6.12q1.46-3,2.89-6a3.12,3.12,0,0,1,.81-1.15c.81-.6,1.95-.21,2.9.16a50.87,50.87,0,0,0,25.11,3.16c3.82-.49,7.71-1.48,10.75-3.84,4.12-3.21,6.11-8.59,6.33-13.81s-1.12-10.37-2.59-15.38a12.25,12.25,0,0,0,6,3.46,1.51,1.51,0,0,0,1.2-.07c.49-.33.47-1,.37-1.63A26.91,26.91,0,0,0,391.14,210l5.45,2.24a2.89,2.89,0,0,0,1.74.32,1.92,1.92,0,0,0,1.26-2,5.17,5.17,0,0,0-.89-2.35,37.07,37.07,0,0,0-56.06-8.81" style="fill:#263238"></path><path d="M387.47,229.78c-1-12.58-14.87-24.91-27.4-23.33L319.49,215l.26,6.78,4.15,83.92h0s2.92,20.66,25.74,18.67c20.51-1.79,20.07-17.1,20.07-17.11l-.66-11.81s16.05-3,19-24.07C389.48,260.89,388.62,243.77,387.47,229.78Z" style="fill:#ffbe9d"></path><path d="M381.22,242.94a2.69,2.69,0,0,1-2.54,2.77,2.58,2.58,0,0,1-2.83-2.38,2.71,2.71,0,0,1,2.55-2.77A2.58,2.58,0,0,1,381.22,242.94Z" style="fill:#263238"></path><path d="M383.93,239.55c-.33.36-2.4-1.11-5.3-1.05s-5,1.55-5.32,1.21c-.16-.16.17-.8,1.09-1.49a7.3,7.3,0,0,1,4.24-1.4,7.11,7.11,0,0,1,4.23,1.27C383.77,238.76,384.09,239.39,383.93,239.55Z" style="fill:#263238"></path><path d="M353.27,243.61a2.69,2.69,0,0,1-2.54,2.77A2.58,2.58,0,0,1,347.9,244a2.68,2.68,0,0,1,2.54-2.77A2.57,2.57,0,0,1,353.27,243.61Z" style="fill:#263238"></path><path d="M355.89,241c-.32.36-2.4-1.11-5.29-1.05s-5,1.56-5.32,1.21c-.16-.16.17-.8,1.08-1.49a7.41,7.41,0,0,1,4.25-1.4,7.11,7.11,0,0,1,4.23,1.27C355.74,240.23,356.05,240.86,355.89,241Z" style="fill:#263238"></path><path d="M366.38,261.2c0-.14,1.78-.45,4.7-.85.74-.08,1.44-.23,1.56-.66s-.15-1.12-.52-1.84l-2.24-4.72c-3.12-6.73-5.38-12.26-5.06-12.37s3.11,5.25,6.23,12l2.15,4.75a3.1,3.1,0,0,1,.41,2.45,1.8,1.8,0,0,1-1.2.95,5.22,5.22,0,0,1-1.26.18C368.21,261.28,366.39,261.34,366.38,261.2Z" style="fill:#263238"></path><path d="M369.05,295.44a53.55,53.55,0,0,1-28.29-7s7.58,14.4,28.57,12Z" style="fill:#eb996e"></path><path d="M358.53,260.67c.47,0,.54,3.11,3.28,5.3s6.08,1.77,6.11,2.21c.05.19-.73.62-2.15.69a7.84,7.84,0,0,1-5.1-1.67,6.81,6.81,0,0,1-2.54-4.44C358,261.45,358.32,260.66,358.53,260.67Z" style="fill:#263238"></path><path d="M356.46,237.92c-.52,1-3.22-.21-6.65-.48s-6.4.28-6.62-.74c-.09-.48.6-1.33,1.92-2a9.49,9.49,0,0,1,5.29-1.07,8.51,8.51,0,0,1,4.82,2C356.28,236.52,356.7,237.46,356.46,237.92Z" style="fill:#263238"></path><path d="M383.79,230.77c-.08,1.17-2.84,1.63-5.56,3.17s-4.66,3.5-5.69,2.93c-.48-.29-.62-1.33-.08-2.71a8.13,8.13,0,0,1,3.68-4,8.28,8.28,0,0,1,5.39-.91C383,229.54,383.8,230.21,383.79,230.77Z" style="fill:#263238"></path><path d="M348.53,256.93a.3.3,0,0,1-.4-.06c-.13-.13-.17-.3-.09-.39a.29.29,0,0,1,.4.06C348.57,256.66,348.61,256.84,348.53,256.93Z" style="fill:#eb996e"></path><path d="M353.16,257.05c-.12,0-.21-.28-.2-.62s.12-.6.25-.59.21.28.2.61S353.28,257.05,353.16,257.05Z" style="fill:#eb996e"></path><path d="M357.49,256c-.13,0-.21-.19-.19-.4s.13-.36.25-.35.21.19.2.39S357.61,256,357.49,256Z" style="fill:#eb996e"></path><path d="M351.54,261.49c-.1.07-.32-.05-.48-.28s-.21-.46-.11-.54.32.06.48.28S351.64,261.42,351.54,261.49Z" style="fill:#eb996e"></path><path d="M355.32,260.22c-.12,0-.18-.21-.14-.42s.18-.35.3-.33.19.22.14.42S355.44,260.25,355.32,260.22Z" style="fill:#eb996e"></path><path d="M380.92,256.11c-.12,0-.28-.16-.45-.38s-.3-.42-.23-.53.37,0,.59.26S381,256.08,380.92,256.11Z" style="fill:#eb996e"></path><path d="M384,256c-.12,0-.12-.33,0-.64s.3-.53.42-.49.11.33,0,.65S384.1,256,384,256Z" style="fill:#eb996e"></path><path d="M387.07,256.44c-.12-.05-.14-.29,0-.55s.26-.44.38-.4.13.29,0,.55S387.19,256.48,387.07,256.44Z" style="fill:#eb996e"></path><path d="M382,261c-.1.07-.29,0-.42-.18s-.16-.38-.07-.46.29,0,.43.18S382.05,260.91,382,261Z" style="fill:#eb996e"></path><path d="M385,260.05c-.12,0-.2-.17-.19-.35s.14-.32.26-.31.21.17.19.35S385.1,260.06,385,260.05Z" style="fill:#eb996e"></path><path d="M368.38,258.06c-.13,0-.22-.25-.21-.56s.12-.56.25-.55.21.25.2.56S368.5,258.07,368.38,258.06Z" style="fill:#eb996e"></path><path d="M375.79,255.93a.22.22,0,0,1-.27-.12.23.23,0,0,1,.17-.25.22.22,0,0,1,.27.12A.22.22,0,0,1,375.79,255.93Z" style="fill:#eb996e"></path><path d="M366.62,253.57c-.12,0-.26-.11-.32-.31s0-.4.11-.43.26.1.32.31S366.74,253.53,366.62,253.57Z" style="fill:#eb996e"></path><path d="M361.45,257.58c-.12,0-.21-.21-.19-.44s.13-.41.26-.4.21.2.19.43S361.58,257.58,361.45,257.58Z" style="fill:#eb996e"></path><path d="M366,246.44c-.13,0-.21-.21-.2-.44s.13-.41.26-.4.21.2.19.43S366.09,246.45,366,246.44Z" style="fill:#eb996e"></path><path d="M322.11,246.21c-.41-.15-16.19-3.83-14.81,12s17,11.18,17,10.72S322.11,246.21,322.11,246.21Z" style="fill:#ffbe9d"></path><path d="M320.31,263.27c-.08,0-.26.22-.71.47a2.75,2.75,0,0,1-2.06.22c-1.72-.47-3.36-3-3.69-5.84a9.27,9.27,0,0,1,.43-4,3.17,3.17,0,0,1,1.89-2.29,1.4,1.4,0,0,1,1.69.61c.25.42.18.75.27.77s.31-.3.13-.94a1.79,1.79,0,0,0-.71-.94A2.14,2.14,0,0,0,316,251a3.91,3.91,0,0,0-2.67,2.71,9.45,9.45,0,0,0-.57,4.49c.38,3.18,2.27,6,4.62,6.49a3,3,0,0,0,2.49-.64C320.31,263.65,320.36,263.29,320.31,263.27Z" style="fill:#eb996e"></path><path d="M387,213.54c-2.6-4.37-7.45-7-12.42-8.11s-10.12-.81-15.2-.52l-43.1,5.49v34.39l3.95,5.43,3.46,3.35c4.27-1.58,8.61-7.29,8.73-14a14.71,14.71,0,0,0,10.28-8,19.43,19.43,0,0,0,1.23-13.16,14.51,14.51,0,0,0,8.24,7.83,9.37,9.37,0,0,0,4.56.6c4.37-.65,7.14-6.25,5-10.12a30.23,30.23,0,0,0,14.25,9.33c3.35,1,7.31,1.31,10-.9C389.24,222.47,389.12,217.18,387,213.54Z" style="fill:#263238"></path><path d="M336.4,185.75a7.34,7.34,0,0,1,2.17,1.28,17.12,17.12,0,0,1,6.36,10.1,7.8,7.8,0,0,1,.22,2.51c-.09,0-.19-.95-.58-2.42a19.36,19.36,0,0,0-6.23-9.91C337.17,186.33,336.36,185.83,336.4,185.75Z" style="fill:#263238"></path><path d="M349,186.41c.13.1-1.27,2.06-2.22,4.84s-1.08,5.2-1.24,5.19a11.24,11.24,0,0,1,.75-5.36A11.4,11.4,0,0,1,349,186.41Z" style="fill:#263238"></path><path d="M359.56,250.23a96,96,0,0,1-10.09.26,96.14,96.14,0,0,1-10.1-.26,99.53,99.53,0,0,1,10.1-.26A99.4,99.4,0,0,1,359.56,250.23Z" style="fill:#EFC342"></path><path d="M358.8,252.83a99.53,99.53,0,0,1-10.1.26,99.53,99.53,0,0,1-10.1-.26,96.14,96.14,0,0,1,10.1-.26A96.14,96.14,0,0,1,358.8,252.83Z" style="fill:#EFC342"></path><path d="M388.67,248.66a86.07,86.07,0,0,1-13.37,0,86.07,86.07,0,0,1,13.37,0Z" style="fill:#EFC342"></path><path d="M389.07,251.28a62.72,62.72,0,0,1-11.41,0,62.72,62.72,0,0,1,11.41,0Z" style="fill:#EFC342"></path></g><g id="freepik--speech-bubble--inject-4"><path d="M623.24,183.81a49.16,49.16,0,0,1-29.62-8.13L571.89,181l9.47-16.83a49.4,49.4,0,1,1,41.88,19.66Z" style="fill:#fff"></path><path d="M623.24,183.81s.29-.05.85-.11l2.53-.28c.55-.07,1.17-.1,1.85-.22l2.21-.46c.79-.17,1.66-.32,2.57-.54l2.86-.9a47.89,47.89,0,0,0,13.65-7,19.9,19.9,0,0,0,1.8-1.41l1.83-1.51a21.49,21.49,0,0,0,1.77-1.68l1.77-1.78c1.16-1.25,2.21-2.65,3.37-4l1.52-2.26a23,23,0,0,0,1.5-2.36,46.38,46.38,0,0,0,2.6-5.18l1.16-2.76c.29-1,.6-1.94.9-2.92.16-.49.31-1,.46-1.48s.22-1,.33-1.53c.21-1,.43-2.07.64-3.12s.23-2.14.36-3.22c.05-.54.11-1.09.16-1.64s0-1.1,0-1.65v-3.36c0-1.12-.21-2.25-.31-3.39,0-.57-.11-1.15-.17-1.72s-.22-1.14-.32-1.71c-.24-1.14-.47-2.29-.71-3.44a53.91,53.91,0,0,0-5.69-13.37,51.2,51.2,0,0,0-9.93-11.57c-1-.81-2-1.71-3.06-2.46l-3.3-2.22c-1.15-.67-2.34-1.28-3.52-1.93-.3-.16-.58-.33-.89-.47l-.93-.4L639.27,89a48.63,48.63,0,0,0-32.88-1.39l-1.57.48-.78.25-.76.31-3,1.27-.75.32-.71.38-1.43.78A27.64,27.64,0,0,0,594.6,93l-2.66,1.8c-.89.59-1.66,1.33-2.5,2a49.7,49.7,0,0,0-4.61,4.33,48.25,48.25,0,0,0-13.06,32.82c0,1,0,1.9,0,2.85s.1,1.88.21,2.81a46.88,46.88,0,0,0,.88,5.49,49.11,49.11,0,0,0,8.68,19l.09.11-.07.12-9.49,16.83-.22-.28,21.74-5.26.07,0,.05,0a49.52,49.52,0,0,0,21.35,7.89,54.31,54.31,0,0,0,6.09.37l1.56,0h.54l-.53,0-1.57.06a51.07,51.07,0,0,1-6.1-.3,48.92,48.92,0,0,1-21.51-7.8l.12,0-21.71,5.34-.43.1.21-.38c2.94-5.23,6.08-10.83,9.45-16.85l0,.23a49.39,49.39,0,0,1-8.8-19.11,45.38,45.38,0,0,1-.89-5.54c-.12-.94-.16-1.89-.22-2.84V133.9a49,49,0,0,1,17.83-37.54c.85-.66,1.63-1.41,2.53-2l2.68-1.82a30.35,30.35,0,0,1,2.82-1.63l1.44-.78.73-.39.75-.33,3-1.28.76-.31.79-.25,1.59-.49a49,49,0,0,1,33.22,1.42l1.89.8.94.4c.31.14.6.32.9.47,1.19.66,2.39,1.28,3.55,2l3.33,2.24c1.09.76,2.07,1.67,3.1,2.49a51.73,51.73,0,0,1,10,11.7,54.12,54.12,0,0,1,5.72,13.5c.24,1.17.48,2.33.71,3.48.11.58.26,1.15.33,1.73s.11,1.15.17,1.73c.1,1.15.26,2.29.3,3.43s0,2.26,0,3.38c0,.56,0,1.12,0,1.67s-.11,1.1-.17,1.65c-.13,1.09-.2,2.18-.37,3.24s-.43,2.11-.65,3.15c-.11.51-.2,1-.33,1.54s-.32,1-.47,1.49l-.92,3c-.4.93-.79,1.86-1.18,2.78a46,46,0,0,1-2.63,5.2,24.08,24.08,0,0,1-1.52,2.38l-1.54,2.27c-1.17,1.38-2.24,2.79-3.41,4L655.38,170a20.14,20.14,0,0,1-1.79,1.68c-.62.51-1.23,1-1.84,1.51a17.08,17.08,0,0,1-1.82,1.41,47.34,47.34,0,0,1-13.76,6.94l-2.88.88c-.91.21-1.78.36-2.58.53l-2.22.43c-.68.11-1.31.14-1.86.2l-2.53.22C623.53,183.8,623.24,183.81,623.24,183.81Z" style="fill:#263238"></path><path d="M643.76,142.69a23.11,23.11,0,0,0,1.13-9.06c1.85-1.74,8.92-3.8,8.92-3.8l-.67-2.66c-2.85.71-8.72.3-9.55.24a23.24,23.24,0,0,0-3.45-6.31c.64-2.38,3.67-5.27,3.67-5.27l-1.93-2a22.82,22.82,0,0,1-5.15,3.65,23.81,23.81,0,0,0-4.46-3c-.61-2.42,1.19-9.69,1.19-9.69l-2.63-.76c-.88,3-4.59,8.29-4.62,8.33a22.86,22.86,0,0,0-6.88-.36c-1.68-1.8-2.71-5.89-2.71-5.89l-2.66.69a22.29,22.29,0,0,1,.58,6.18,23.5,23.5,0,0,0-5.49,2.54c-2.49-.8-7.8-5.84-7.8-5.84l-2,1.94c2,2,4.39,6.91,4.91,8A23.71,23.71,0,0,0,600,126.2a16.47,16.47,0,0,1-5.94-.58l-.73,2.68a22.84,22.84,0,0,1,5.3,2.31,23.09,23.09,0,0,0-.43,6.23c-2.43,1.65-8.48,3.42-8.48,3.42l.68,2.69c2.49-.62,7.16-.38,8.93-.26a23.18,23.18,0,0,0,3.61,6.84,16.71,16.71,0,0,1-3.48,4.79l2,2a22.73,22.73,0,0,1,4.67-3.42,23.5,23.5,0,0,0,8.63,4.82c1,2.61,1,9.39,1,9.39l2.78.09c.08-2.5,1.52-6.72,2.16-8.48a23.2,23.2,0,0,0,6.22-.6,21.81,21.81,0,0,0,3-1,17.09,17.09,0,0,1,3,5l2.56-1.07a22.92,22.92,0,0,1-1.44-6,23.44,23.44,0,0,0,7-6.86c2.91.33,8.69,3,8.69,3l1.25-2.48C648.44,147.38,644.5,143.44,643.76,142.69Zm-28.52-29.87-.09,0Z" style="fill:#EFC342"></path><g style="opacity:0.2"><path d="M638.5,140.29c-1.17-.31-1.48-2.67-2.52-5.71-.11-.38-.29-.77-.42-1.17s-.34-.81-.5-1.23a24.43,24.43,0,0,0-1.3-2.54,17.89,17.89,0,0,0-9.23-7.94,24.55,24.55,0,0,0-2.71-.9c-.44-.1-.87-.23-1.29-.31s-.83-.19-1.22-.24c-3.17-.57-5.54-.53-6-1.64a1.11,1.11,0,0,1,.08-.93,3.92,3.92,0,0,1,.95-1.18,11,11,0,0,1,4.62-2.2,15.87,15.87,0,0,1,1.69-.32c.59-.08,1.21-.11,1.86-.14a19,19,0,0,1,4.15.38,18.69,18.69,0,0,1,4.42,1.48,19.45,19.45,0,0,1,4.29,2.77,19.8,19.8,0,0,1,3.38,3.82,19,19,0,0,1,2.12,4.15,18.47,18.47,0,0,1,1,4c.07.65.13,1.27.14,1.87a15.72,15.72,0,0,1-.06,1.71,11,11,0,0,1-1.49,4.9,3.59,3.59,0,0,1-1,1.11A1.15,1.15,0,0,1,638.5,140.29Z" style="fill:#fff"></path></g><path d="M601.64,108.23c.36.35-.24,1.53-1.33,2.63a8,8,0,0,1-1.1.93c-.69.47-1.28.65-1.52.42s.24-1.53,1.33-2.63S601.29,107.87,601.64,108.23Z" style="fill:#EFC342"></path><g style="opacity:0.30000000000000004"><path d="M599.31,111.72a8.93,8.93,0,0,0,1.94-2c.38.35.81.75,1.25,1.14a9.13,9.13,0,0,1-2.78,1.3Z"></path></g><path d="M593.68,124.12c.49.13.57,1.45.19,2.95a8,8,0,0,1-.48,1.36c-.36.75-.78,1.21-1.1,1.13-.49-.13-.57-1.44-.19-2.94S593.19,124,593.68,124.12Z" style="fill:#EFC342"></path><g style="opacity:0.30000000000000004"><path d="M593.44,128.32a6.3,6.3,0,0,0,.66-2.7c.5.14,1,.26,1.63.38a9,9,0,0,1-1.71,2.49Z"></path></g><path d="M588.66,139.17c.49-.13,1.2,1,1.61,2.47a8.1,8.1,0,0,1,.24,1.42c.06.83-.08,1.44-.4,1.53-.48.13-1.2-1-1.6-2.48S588.17,139.3,588.66,139.17Z" style="fill:#EFC342"></path><g style="opacity:0.30000000000000004"><path d="M590.5,142.94a8.81,8.81,0,0,0-.74-2.68l1.61-.5a9.08,9.08,0,0,1-.27,3.06Z"></path></g><path d="M598,153.93c.35-.36,1.54.23,2.64,1.32a8,8,0,0,1,.93,1.1c.47.69.66,1.28.43,1.52s-1.54-.23-2.64-1.32S597.65,154.29,598,153.93Z" style="fill:#EFC342"></path><g style="opacity:0.30000000000000004"><path d="M601.5,156.25a6.22,6.22,0,0,0-2-1.93c.38-.36.76-.77,1.15-1.22a8.82,8.82,0,0,1,1.29,2.74Z"></path></g><path d="M614.43,167.84c0-.5,1.28-.88,2.83-.85a7.66,7.66,0,0,1,1.43.15c.82.17,1.36.48,1.35.81,0,.5-1.27.89-2.82.86S614.42,168.35,614.43,167.84Z" style="fill:#EFC342"></path><g style="opacity:0.30000000000000004"><path d="M618.57,167.12a8.88,8.88,0,0,0-2.78,0c0-.51,0-1.1,0-1.69a9.23,9.23,0,0,1,2.87,1.11Z"></path></g><path d="M632.09,163.34c-.2-.46.79-1.33,2.22-1.94a7.27,7.27,0,0,1,1.37-.45c.81-.18,1.44-.13,1.57.18.2.46-.8,1.33-2.22,1.94S632.29,163.8,632.09,163.34Z" style="fill:#EFC342"></path><g style="opacity:0.30000000000000004"><path d="M635.56,161A6.18,6.18,0,0,0,633,162.1c-.2-.49-.43-1-.7-1.53a8.91,8.91,0,0,1,3-.16Z"></path></g><path d="M649.89,152.72c-.45-.22-.27-1.53.41-2.92a7.13,7.13,0,0,1,.74-1.24c.5-.67,1-1,1.3-.89.46.22.27,1.53-.4,2.92S650.34,152.94,649.89,152.72Z" style="fill:#EFC342"></path><g style="opacity:0.30000000000000004"><path d="M651,148.66a8.89,8.89,0,0,0-1.19,2.51l-1.55-.68a8.94,8.94,0,0,1,2.21-2.13Z"></path></g><g style="opacity:0.30000000000000004"><path d="M612.58,140.9c.42,1.76-.21,3.42-1.39,3.7s-2.49-.92-2.91-2.68.21-3.42,1.4-3.71S612.16,139.14,612.58,140.9Z"></path></g><path d="M611.35,139.28c.41,1.77-.21,3.42-1.4,3.7s-2.48-.92-2.9-2.68.21-3.42,1.4-3.7S610.93,137.52,611.35,139.28Z" style="fill:#EFC342"></path><g style="opacity:0.2"><path d="M611.35,139.28c.41,1.77-.21,3.42-1.4,3.7s-2.48-.92-2.9-2.68.21-3.42,1.4-3.7S610.93,137.52,611.35,139.28Z" style="fill:#fff"></path></g><g style="opacity:0.30000000000000004"><path d="M607.38,122.76c1.36-1.2,3.12-1.42,3.92-.5s.35,2.62-1,3.82-3.12,1.42-3.92.5S606,124,607.38,122.76Z"></path></g><path d="M606,121.3c1.36-1.19,3.12-1.42,3.92-.5s.35,2.63-1,3.82-3.12,1.42-3.92.51S604.68,122.5,606,121.3Z" style="fill:#EFC342"></path><g style="opacity:0.2"><path d="M606,121.3c1.36-1.19,3.12-1.42,3.92-.5s.35,2.63-1,3.82-3.12,1.42-3.92.51S604.68,122.5,606,121.3Z" style="fill:#fff"></path></g><g style="opacity:0.30000000000000004"><path d="M621.17,149a2.16,2.16,0,1,1-2.6-1.6A2.16,2.16,0,0,1,621.17,149Z"></path></g><path d="M620.9,147.88a2.16,2.16,0,1,1-2.6-1.61A2.16,2.16,0,0,1,620.9,147.88Z" style="fill:#EFC342"></path><g style="opacity:0.30000000000000004"><path d="M620.9,147.88a2.16,2.16,0,1,1-2.6-1.61A2.16,2.16,0,0,1,620.9,147.88Z" style="fill:#fff"></path></g><g style="opacity:0.30000000000000004"><path d="M630.71,127a2.66,2.66,0,1,1-1-3.61A2.66,2.66,0,0,1,630.71,127Z"></path></g><path d="M631.41,125.78a2.66,2.66,0,1,1-1-3.61A2.66,2.66,0,0,1,631.41,125.78Z" style="fill:#EFC342"></path><g style="opacity:0.30000000000000004"><path d="M631.41,125.78a2.66,2.66,0,1,1-1-3.61A2.66,2.66,0,0,1,631.41,125.78Z" style="fill:#fff"></path></g><g style="opacity:0.30000000000000004"><path d="M632.36,148.55a1.58,1.58,0,1,1-1.91-1.18A1.6,1.6,0,0,1,632.36,148.55Z"></path></g><path d="M632.17,147.72a1.59,1.59,0,1,1-1.91-1.17A1.59,1.59,0,0,1,632.17,147.72Z" style="fill:#EFC342"></path><g style="opacity:0.30000000000000004"><path d="M632.17,147.72a1.59,1.59,0,1,1-1.91-1.17A1.59,1.59,0,0,1,632.17,147.72Z" style="fill:#fff"></path></g><path d="M654.9,130.91c-.48.13-1.19-1-1.59-2.44a7.9,7.9,0,0,1-.24-1.4c-.06-.83.07-1.43.39-1.51.48-.13,1.19,1,1.59,2.44S655.38,130.78,654.9,130.91Z" style="fill:#EFC342"></path><g style="opacity:0.30000000000000004"><path d="M653.07,127.19a8.86,8.86,0,0,0,.74,2.64l-1.6.5a9.11,9.11,0,0,1,.27-3Z"></path></g><path d="M645.29,116.21c-.35.35-1.52-.23-2.61-1.31a7.26,7.26,0,0,1-.92-1.08c-.47-.68-.65-1.27-.42-1.5s1.52.23,2.61,1.3S645.64,115.86,645.29,116.21Z" style="fill:#EFC342"></path><g style="opacity:0.30000000000000004"><path d="M641.83,113.92a6.1,6.1,0,0,0,2,1.91c-.37.35-.75.76-1.14,1.2a8.87,8.87,0,0,1-1.28-2.7Z"></path></g><path d="M634.94,104.44c-.13.48-1.43.55-2.91.15a7.56,7.56,0,0,1-1.33-.5c-.74-.36-1.19-.78-1.11-1.1.14-.48,1.44-.54,2.92-.14S635.07,104,634.94,104.44Z" style="fill:#EFC342"></path><g style="opacity:0.30000000000000004"><path d="M630.81,104.14a8.86,8.86,0,0,0,2.65.7c-.11.49-.25,1.06-.37,1.63a9.13,9.13,0,0,1-2.48-1.76Z"></path></g><path d="M617.7,105.08c.13.47-1,1.19-2.44,1.59a7.15,7.15,0,0,1-1.4.25c-.83.06-1.43-.07-1.51-.39-.14-.48,1-1.2,2.43-1.6S617.57,104.6,617.7,105.08Z" style="fill:#EFC342"></path><g style="opacity:0.30000000000000004"><path d="M614,106.91a6.07,6.07,0,0,0,2.64-.75c.12.5.28,1,.46,1.59a8.75,8.75,0,0,1-3-.26Z"></path></g><g style="opacity:0.30000000000000004"><path d="M636.7,141.78c-.45,1.75-1.78,2.92-3,2.62s-1.77-2-1.31-3.74,1.79-2.92,3-2.61S637.16,140,636.7,141.78Z"></path></g><path d="M637.42,140.7c-.46,1.75-1.79,2.92-3,2.62s-1.76-2-1.3-3.74,1.78-2.92,3-2.62S637.88,138.94,637.42,140.7Z" style="fill:#EFC342"></path><g style="opacity:0.30000000000000004"><path d="M637.42,140.7c-.46,1.75-1.79,2.92-3,2.62s-1.76-2-1.3-3.74,1.78-2.92,3-2.62S637.88,138.94,637.42,140.7Z" style="fill:#fff"></path></g><g style="opacity:0.30000000000000004"><path d="M624.6,133.89a3.28,3.28,0,1,1-3.94-2.44A3.28,3.28,0,0,1,624.6,133.89Z"></path></g><path d="M624.16,132a3.28,3.28,0,1,1-3.94-2.43A3.27,3.27,0,0,1,624.16,132Z" style="fill:#EFC342"></path><g style="opacity:0.2"><path d="M624.16,132a3.28,3.28,0,1,1-3.94-2.43A3.27,3.27,0,0,1,624.16,132Z" style="fill:#fff"></path></g><g style="opacity:0.30000000000000004"><path d="M637,149.41c.2.21,0,.78-.58,1.61a13.47,13.47,0,0,1-3.1,2.94,21.2,21.2,0,0,1-2.55,1.54,22.8,22.8,0,0,1-3.19,1.29,21.64,21.64,0,0,1-15.56-1,21.75,21.75,0,0,1-3-1.67,20.68,20.68,0,0,1-2.35-1.84A13.41,13.41,0,0,1,604,149c-.49-.89-.61-1.48-.39-1.66.49-.4,2.1,1,4.88,2.57.69.4,1.46.79,2.3,1.2s1.75.77,2.73,1.1a23.82,23.82,0,0,0,13.1.8,26.61,26.61,0,0,0,2.84-.76c.88-.29,1.7-.59,2.43-.91C634.8,150.12,636.57,149,637,149.41Z"></path></g><g style="opacity:0.30000000000000004"><path d="M601.37,139.38a2,2,0,1,1-1.48,2.5A2.06,2.06,0,0,1,601.37,139.38Z"></path></g><rect x="620.78" y="83.96" width="2" height="98.74" transform="translate(128.97 535.23) rotate(-51.3)" style="fill:#263238"></rect></g><g id="freepik--Table--inject-4"><path d="M701.29,466.73s.75,0,2.3,0l7.07,0v.11l-331,.21L139,466.91l-72.94-.08-19.83-.05-5.16,0-1.75,0,1.75,0,5.16,0,19.83-.05,72.94-.08,240.68-.07,331,.2v.11l-7.07,0C702,466.75,701.29,466.73,701.29,466.73Z" style="fill:#263238"></path></g></svg>